<?xml version="1.0" encoding="utf-8" standalone="no"?>
<!DOCTYPE svg PUBLIC "-//W3C//DTD SVG 1.1//EN"
  "http://www.w3.org/Graphics/SVG/1.1/DTD/svg11.dtd">
<svg xmlns:xlink="http://www.w3.org/1999/xlink" width="435.246604pt" height="438.88273pt" viewBox="0 0 435.246604 438.88273" xmlns="http://www.w3.org/2000/svg" version="1.1">
 <metadata>
  <rdf:RDF xmlns:dc="http://purl.org/dc/elements/1.1/" xmlns:cc="http://creativecommons.org/ns#" xmlns:rdf="http://www.w3.org/1999/02/22-rdf-syntax-ns#">
   <cc:Work>
    <dc:type rdf:resource="http://purl.org/dc/dcmitype/StillImage"/>
    <dc:date>2023-05-23T20:53:35.065591</dc:date>
    <dc:format>image/svg+xml</dc:format>
    <dc:creator>
     <cc:Agent>
      <dc:title>Matplotlib v3.7.1, https://matplotlib.org/</dc:title>
     </cc:Agent>
    </dc:creator>
   </cc:Work>
  </rdf:RDF>
 </metadata>
 <defs>
  <style type="text/css">*{stroke-linejoin: round; stroke-linecap: butt}</style>
 </defs>
 <g id="figure_1">
  <g id="patch_1">
   <path d="M 0 438.88273 
L 435.246604 438.88273 
L 435.246604 0 
L 0 0 
z
" style="fill: #ffffff"/>
  </g>
  <g id="axes_1">
   <g id="patch_2">
    <path d="M 243.954254 49.098849 
L 244.241409 49.096571 
L 244.528493 49.089737 
L 244.815432 49.078349 
L 245.102154 49.06241 
L 245.388587 49.041924 
L 245.674659 49.016896 
L 245.960298 48.987332 
L 246.245431 48.95324 
L 246.529988 48.914629 
L 246.813897 48.871507 
L 247.097086 48.823887 
L 247.379483 48.771779 
L 247.661019 48.715197 
L 247.941621 48.654156 
L 248.221219 48.588671 
L 248.499743 48.518757 
L 248.777123 48.444433 
L 249.053289 48.365718 
L 249.328171 48.282631 
L 249.6017 48.195193 
L 249.873807 48.103427 
L 250.144425 48.007355 
L 250.413483 47.907001 
L 250.680916 47.802391 
L 250.946656 47.693551 
L 251.210635 47.580508 
L 251.472787 47.463292 
L 251.733047 47.341931 
L 251.991348 47.216456 
L 252.247626 47.086898 
L 252.501816 46.953291 
L 252.753855 46.815668 
L 253.003678 46.674063 
L 253.251223 46.528512 
L 253.496428 46.379052 
L 253.73923 46.22572 
L 253.979569 46.068556 
L 254.217384 45.907598 
L 254.452616 45.742887 
L 254.685205 45.574465 
L 254.915092 45.402373 
L 255.14222 45.226656 
L 255.366531 45.047357 
L 255.587969 44.864522 
L 255.806479 44.678197 
L 256.022005 44.488429 
L 256.234493 44.295264 
L 256.443889 44.098753 
L 256.650142 43.898944 
L 256.853198 43.695888 
L 257.053007 43.489636 
L 257.249518 43.280239 
L 257.442682 43.067751 
L 257.632451 42.852225 
L 257.818776 42.633716 
L 258.001611 42.412277 
L 258.18091 42.187966 
L 258.356627 41.960838 
L 258.528718 41.730951 
L 258.697141 41.498362 
L 258.861852 41.263131 
L 259.02281 41.025315 
L 259.179974 40.784976 
L 259.333306 40.542174 
L 259.482766 40.296969 
L 259.628316 40.049424 
L 259.769921 39.799601 
L 259.907545 39.547563 
L 260.041152 39.293372 
L 260.170709 39.037094 
L 260.296184 38.778793 
L 260.417546 38.518533 
L 260.534762 38.256381 
L 260.647805 37.992402 
L 260.756644 37.726663 
L 260.861254 37.45923 
L 260.961608 37.190171 
L 261.057681 36.919554 
L 261.149447 36.647446 
L 261.236885 36.373917 
L 261.319972 36.099035 
L 261.398687 35.822869 
L 261.473011 35.545489 
L 261.542924 35.266965 
L 261.60841 34.987367 
L 261.669451 34.706765 
L 261.726033 34.42523 
L 261.77814 34.142832 
L 261.825761 33.859643 
L 261.868882 33.575735 
L 261.907494 33.291178 
L 261.941586 33.006044 
L 261.971149 32.720405 
L 261.996177 32.434333 
L 262.016664 32.1479 
L 262.032603 31.861178 
L 262.04399 31.574239 
L 262.050824 31.287156 
L 262.053102 31 
L 262.053102 31 
L 262.050824 30.712844 
L 262.04399 30.425761 
L 262.032603 30.138822 
L 262.016664 29.8521 
L 261.996177 29.565667 
L 261.971149 29.279595 
L 261.941586 28.993956 
L 261.907494 28.708822 
L 261.868882 28.424265 
L 261.825761 28.140357 
L 261.77814 27.857168 
L 261.726033 27.57477 
L 261.669451 27.293235 
L 261.60841 27.012633 
L 261.542924 26.733035 
L 261.473011 26.454511 
L 261.398687 26.177131 
L 261.319972 25.900965 
L 261.236885 25.626083 
L 261.149447 25.352554 
L 261.057681 25.080446 
L 260.961608 24.809829 
L 260.861254 24.54077 
L 260.756644 24.273337 
L 260.647805 24.007598 
L 260.534762 23.743619 
L 260.417546 23.481467 
L 260.296184 23.221207 
L 260.170709 22.962906 
L 260.041152 22.706628 
L 259.907545 22.452437 
L 259.769921 22.200399 
L 259.628316 21.950576 
L 259.482766 21.703031 
L 259.333306 21.457826 
L 259.179974 21.215024 
L 259.02281 20.974685 
L 258.861852 20.736869 
L 258.697141 20.501638 
L 258.528718 20.269049 
L 258.356627 20.039162 
L 258.18091 19.812034 
L 258.001611 19.587723 
L 257.818776 19.366284 
L 257.632451 19.147775 
L 257.442682 18.932249 
L 257.249518 18.719761 
L 257.053007 18.510364 
L 256.853198 18.304112 
L 256.650142 18.101056 
L 256.443889 17.901247 
L 256.234493 17.704736 
L 256.022005 17.511571 
L 255.806479 17.321803 
L 255.587969 17.135478 
L 255.366531 16.952643 
L 255.14222 16.773344 
L 254.915092 16.597627 
L 254.685205 16.425535 
L 254.452616 16.257113 
L 254.217384 16.092402 
L 253.979569 15.931444 
L 253.73923 15.77428 
L 253.496428 15.620948 
L 253.251223 15.471488 
L 253.003678 15.325937 
L 252.753855 15.184332 
L 252.501816 15.046709 
L 252.247626 14.913102 
L 251.991348 14.783544 
L 251.733047 14.658069 
L 251.472787 14.536708 
L 251.210635 14.419492 
L 250.946656 14.306449 
L 250.680916 14.197609 
L 250.413483 14.092999 
L 250.144425 13.992645 
L 249.873807 13.896573 
L 249.6017 13.804807 
L 249.328171 13.717369 
L 249.053289 13.634282 
L 248.777123 13.555567 
L 248.499743 13.481243 
L 248.221219 13.411329 
L 247.941621 13.345844 
L 247.661019 13.284803 
L 247.379483 13.228221 
L 247.097086 13.176113 
L 246.813897 13.128493 
L 246.529988 13.085371 
L 246.245431 13.04676 
L 245.960298 13.012668 
L 245.674659 12.983104 
L 245.388587 12.958076 
L 245.102154 12.93759 
L 244.815432 12.921651 
L 244.528493 12.910263 
L 244.241409 12.903429 
L 243.954254 12.901151 
L 191.275574 12.901151 
L 190.988418 12.903429 
L 190.701335 12.910263 
L 190.414396 12.921651 
L 190.127674 12.93759 
L 189.841241 12.958076 
L 189.555169 12.983104 
L 189.26953 13.012668 
L 188.984396 13.04676 
L 188.699839 13.085371 
L 188.41593 13.128493 
L 188.132742 13.176113 
L 187.850344 13.228221 
L 187.568809 13.284803 
L 187.288207 13.345844 
L 187.008608 13.411329 
L 186.730084 13.481243 
L 186.452704 13.555567 
L 186.176539 13.634282 
L 185.901657 13.717369 
L 185.628127 13.804807 
L 185.35602 13.896573 
L 185.085403 13.992645 
L 184.816344 14.092999 
L 184.548911 14.197609 
L 184.283172 14.306449 
L 184.019193 14.419492 
L 183.75704 14.536708 
L 183.496781 14.658069 
L 183.238479 14.783544 
L 182.982201 14.913102 
L 182.728011 15.046709 
L 182.475972 15.184332 
L 182.226149 15.325937 
L 181.978604 15.471488 
L 181.7334 15.620948 
L 181.490597 15.77428 
L 181.250258 15.931444 
L 181.012443 16.092402 
L 180.777211 16.257113 
L 180.544623 16.425535 
L 180.314736 16.597627 
L 180.087608 16.773344 
L 179.863296 16.952643 
L 179.641858 17.135478 
L 179.423348 17.321803 
L 179.207822 17.511571 
L 178.995334 17.704736 
L 178.785938 17.901247 
L 178.579686 18.101056 
L 178.37663 18.304112 
L 178.176821 18.510364 
L 177.980309 18.719761 
L 177.787145 18.932249 
L 177.597376 19.147775 
L 177.411051 19.366284 
L 177.228216 19.587723 
L 177.048918 19.812034 
L 176.8732 20.039162 
L 176.701109 20.269049 
L 176.532687 20.501638 
L 176.367976 20.736869 
L 176.207018 20.974685 
L 176.049853 21.215024 
L 175.896522 21.457826 
L 175.747062 21.703031 
L 175.601511 21.950576 
L 175.459906 22.200399 
L 175.322283 22.452437 
L 175.188675 22.706628 
L 175.059118 22.962906 
L 174.933643 23.221207 
L 174.812282 23.481467 
L 174.695065 23.743619 
L 174.582023 24.007598 
L 174.473183 24.273337 
L 174.368573 24.54077 
L 174.268219 24.809829 
L 174.172147 25.080446 
L 174.08038 25.352554 
L 173.992942 25.626083 
L 173.909855 25.900965 
L 173.83114 26.177131 
L 173.756817 26.454511 
L 173.686903 26.733035 
L 173.621417 27.012633 
L 173.560376 27.293235 
L 173.503795 27.57477 
L 173.451687 27.857168 
L 173.404067 28.140357 
L 173.360945 28.424265 
L 173.322334 28.708822 
L 173.288242 28.993956 
L 173.258678 29.279595 
L 173.23365 29.565667 
L 173.213164 29.8521 
L 173.197225 30.138822 
L 173.185837 30.425761 
L 173.179003 30.712844 
L 173.176725 31 
L 173.176725 31 
L 173.179003 31.287156 
L 173.185837 31.574239 
L 173.197225 31.861178 
L 173.213164 32.1479 
L 173.23365 32.434333 
L 173.258678 32.720405 
L 173.288242 33.006044 
L 173.322334 33.291178 
L 173.360945 33.575735 
L 173.404067 33.859643 
L 173.451687 34.142832 
L 173.503795 34.42523 
L 173.560376 34.706765 
L 173.621417 34.987367 
L 173.686903 35.266965 
L 173.756817 35.545489 
L 173.83114 35.822869 
L 173.909855 36.099035 
L 173.992942 36.373917 
L 174.08038 36.647446 
L 174.172147 36.919554 
L 174.268219 37.190171 
L 174.368573 37.45923 
L 174.473183 37.726663 
L 174.582023 37.992402 
L 174.695065 38.256381 
L 174.812282 38.518533 
L 174.933643 38.778793 
L 175.059118 39.037094 
L 175.188675 39.293372 
L 175.322283 39.547563 
L 175.459906 39.799601 
L 175.601511 40.049424 
L 175.747062 40.296969 
L 175.896522 40.542174 
L 176.049853 40.784976 
L 176.207018 41.025315 
L 176.367976 41.263131 
L 176.532687 41.498362 
L 176.701109 41.730951 
L 176.8732 41.960838 
L 177.048918 42.187966 
L 177.228216 42.412277 
L 177.411051 42.633716 
L 177.597376 42.852225 
L 177.787145 43.067751 
L 177.980309 43.280239 
L 178.176821 43.489636 
L 178.37663 43.695888 
L 178.579686 43.898944 
L 178.785938 44.098753 
L 178.995334 44.295264 
L 179.207822 44.488429 
L 179.423348 44.678197 
L 179.641858 44.864522 
L 179.863296 45.047357 
L 180.087608 45.226656 
L 180.314736 45.402373 
L 180.544623 45.574465 
L 180.777211 45.742887 
L 181.012443 45.907598 
L 181.250258 46.068556 
L 181.490597 46.22572 
L 181.7334 46.379052 
L 181.978604 46.528512 
L 182.226149 46.674063 
L 182.475972 46.815668 
L 182.728011 46.953291 
L 182.982201 47.086898 
L 183.238479 47.216456 
L 183.496781 47.341931 
L 183.75704 47.463292 
L 184.019193 47.580508 
L 184.283172 47.693551 
L 184.548911 47.802391 
L 184.816344 47.907001 
L 185.085403 48.007355 
L 185.35602 48.103427 
L 185.628127 48.195193 
L 185.901657 48.282631 
L 186.176539 48.365718 
L 186.452704 48.444433 
L 186.730084 48.518757 
L 187.008608 48.588671 
L 187.288207 48.654156 
L 187.568809 48.715197 
L 187.850344 48.771779 
L 188.132742 48.823887 
L 188.41593 48.871507 
L 188.699839 48.914629 
L 188.984396 48.95324 
L 189.26953 48.987332 
L 189.555169 49.016896 
L 189.841241 49.041924 
L 190.127674 49.06241 
L 190.414396 49.078349 
L 190.701335 49.089737 
L 190.988418 49.096571 
L 191.275574 49.098849 
L 243.954254 49.098849 
z
" clip-path="url(#pe8003467ff)" style="fill: none; stroke: #000000; stroke-width: 2; stroke-linecap: round"/>
   </g>
   <g id="patch_3">
    <path d="M 217.614914 64.398849 
L 217.614914 64.398849 
L 217.614914 64.398849 
L 217.614914 64.398849 
z
" clip-path="url(#pe8003467ff)" style="fill: none; stroke: #000000; stroke-width: 2; stroke-linecap: round"/>
   </g>
   <g id="patch_4">
    <path d="M 217.614914 131.196546 
L 217.614914 131.196546 
L 217.614914 131.196546 
L 217.614914 131.196546 
z
" clip-path="url(#pe8003467ff)" style="fill: none; stroke: #000000; stroke-width: 2; stroke-linecap: round"/>
   </g>
   <g id="patch_5">
    <path d="M 217.614914 208.443092 
L 217.614914 208.443092 
L 217.614914 208.443092 
L 217.614914 208.443092 
z
" clip-path="url(#pe8003467ff)" style="fill: none; stroke: #000000; stroke-width: 2; stroke-linecap: round"/>
   </g>
   <g id="line2d_1">
    <path d="M 217.614914 49.098849 
L 217.614914 56.748849 
L 217.614914 64.398849 
" clip-path="url(#pe8003467ff)" style="fill: none; stroke: #000000; stroke-width: 2; stroke-linecap: round"/>
   </g>
   <g id="line2d_2">
    <path d="M 217.614914 64.398849 
L 259.604197 64.398849 
L 293.943481 64.398849 
" clip-path="url(#pe8003467ff)" style="fill: none; stroke: #000000; stroke-width: 2; stroke-linecap: round"/>
   </g>
   <g id="patch_6">
    <path d="M 293.943481 62.103849 
L 301.593481 64.398849 
L 293.943481 66.693849 
z
" clip-path="url(#pe8003467ff)"/>
   </g>
   <g id="line2d_3">
    <path d="M 301.593481 64.398849 
L 301.593481 35.851151 
L 424.881752 35.851151 
L 424.881752 92.946546 
L 301.593481 92.946546 
L 301.593481 64.398849 
" clip-path="url(#pe8003467ff)" style="fill: none; stroke: #000000; stroke-linecap: round"/>
   </g>
   <g id="line2d_4">
    <path d="M 217.614914 64.398849 
L 217.614914 72.048849 
L 217.614914 72.048849 
" clip-path="url(#pe8003467ff)" style="fill: none; stroke: #000000; stroke-width: 2; stroke-linecap: round"/>
   </g>
   <g id="patch_7">
    <path d="M 219.909914 72.048849 
L 217.614914 79.698849 
L 215.319914 72.048849 
z
" clip-path="url(#pe8003467ff)"/>
   </g>
   <g id="line2d_5">
    <path d="M 147.632774 97.797697 
L 147.632774 79.698849 
L 287.597053 79.698849 
L 287.597053 115.896546 
L 147.632774 115.896546 
L 147.632774 97.797697 
" clip-path="url(#pe8003467ff)" style="fill: none; stroke: #000000; stroke-width: 2; stroke-linecap: round"/>
   </g>
   <g id="line2d_6">
    <path d="M 217.614914 115.896546 
L 217.614914 123.546546 
L 217.614914 131.196546 
" clip-path="url(#pe8003467ff)" style="fill: none; stroke: #000000; stroke-width: 2; stroke-linecap: round"/>
   </g>
   <g id="line2d_7">
    <path d="M 217.614914 131.196546 
L 175.62563 131.196546 
L 141.286347 131.196546 
" clip-path="url(#pe8003467ff)" style="fill: none; stroke: #000000; stroke-width: 2; stroke-linecap: round"/>
   </g>
   <g id="patch_8">
    <path d="M 141.286347 133.491546 
L 133.636347 131.196546 
L 141.286347 128.901546 
z
" clip-path="url(#pe8003467ff)"/>
   </g>
   <g id="line2d_8">
    <path d="M 10.26 131.196546 
L 10.26 102.648849 
L 133.636347 102.648849 
L 133.636347 159.744243 
L 10.26 159.744243 
L 10.26 131.196546 
" clip-path="url(#pe8003467ff)" style="fill: none; stroke: #000000; stroke-linecap: round"/>
   </g>
   <g id="line2d_9">
    <path d="M 217.614914 131.196546 
L 217.614914 138.846546 
L 217.614914 138.846546 
" clip-path="url(#pe8003467ff)" style="fill: none; stroke: #000000; stroke-width: 2; stroke-linecap: round"/>
   </g>
   <g id="patch_9">
    <path d="M 219.909914 138.846546 
L 217.614914 146.496546 
L 215.319914 138.846546 
z
" clip-path="url(#pe8003467ff)"/>
   </g>
   <g id="line2d_10">
    <path d="M 147.632774 169.819819 
L 147.632774 146.496546 
L 287.597053 146.496546 
L 287.597053 193.143092 
L 147.632774 193.143092 
L 147.632774 169.819819 
" clip-path="url(#pe8003467ff)" style="fill: none; stroke: #000000; stroke-width: 2; stroke-linecap: round"/>
   </g>
   <g id="line2d_11">
    <path d="M 217.614914 193.143092 
L 217.614914 200.793092 
L 217.614914 208.443092 
" clip-path="url(#pe8003467ff)" style="fill: none; stroke: #000000; stroke-width: 2; stroke-linecap: round"/>
   </g>
   <g id="line2d_12">
    <path d="M 217.614914 208.443092 
L 259.604197 208.443092 
L 293.943481 208.443092 
" clip-path="url(#pe8003467ff)" style="fill: none; stroke: #000000; stroke-width: 2; stroke-linecap: round"/>
   </g>
   <g id="patch_10">
    <path d="M 293.943481 206.148092 
L 301.593481 208.443092 
L 293.943481 210.738092 
z
" clip-path="url(#pe8003467ff)"/>
   </g>
   <g id="line2d_13">
    <path d="M 301.593481 208.443092 
L 301.593481 179.895395 
L 424.986604 179.895395 
L 424.986604 236.990789 
L 301.593481 236.990789 
L 301.593481 208.443092 
" clip-path="url(#pe8003467ff)" style="fill: none; stroke: #000000; stroke-linecap: round"/>
   </g>
   <g id="line2d_14">
    <path d="M 217.614914 208.443092 
L 217.614914 216.093092 
L 217.614914 216.093092 
" clip-path="url(#pe8003467ff)" style="fill: none; stroke: #000000; stroke-width: 2; stroke-linecap: round"/>
   </g>
   <g id="patch_11">
    <path d="M 219.909914 216.093092 
L 217.614914 223.743092 
L 215.319914 216.093092 
z
" clip-path="url(#pe8003467ff)"/>
   </g>
   <g id="line2d_15">
    <path d="M 147.632774 252.290789 
L 147.632774 223.743092 
L 287.597053 223.743092 
L 287.597053 280.838487 
L 147.632774 280.838487 
L 147.632774 252.290789 
" clip-path="url(#pe8003467ff)" style="fill: none; stroke: #000000; stroke-width: 2; stroke-linecap: round"/>
   </g>
   <g id="line2d_16">
    <path d="M 217.614914 280.838487 
L 217.614914 296.138487 
L 217.614914 311.438487 
" clip-path="url(#pe8003467ff)" style="fill: none; stroke: #000000; stroke-width: 2; stroke-linecap: round"/>
   </g>
   <g id="line2d_17">
    <path d="M 217.614914 311.438487 
L 217.614914 311.438487 
L 217.614914 311.438487 
L 217.614914 311.438487 
L 217.614914 311.438487 
L 217.614914 311.438487 
" clip-path="url(#pe8003467ff)" style="fill: none; stroke: #000000; stroke-width: 2; stroke-linecap: round"/>
   </g>
   <g id="line2d_18">
    <path d="M 217.614914 311.438487 
L 167.323844 311.438487 
L 117.032774 311.438487 
" clip-path="url(#pe8003467ff)" style="fill: none; stroke: #000000; stroke-width: 2; stroke-linecap: round"/>
   </g>
   <g id="line2d_19">
    <path d="M 117.032774 311.438487 
L 117.032774 311.438487 
L 117.032774 311.438487 
L 117.032774 311.438487 
L 117.032774 311.438487 
L 117.032774 311.438487 
" clip-path="url(#pe8003467ff)" style="fill: none; stroke: #000000; stroke-width: 2; stroke-linecap: round"/>
   </g>
   <g id="line2d_20">
    <path d="M 117.032774 311.438487 
L 117.032774 326.738487 
L 117.032774 334.388487 
" clip-path="url(#pe8003467ff)" style="fill: none; stroke: #000000; stroke-width: 2; stroke-linecap: round"/>
   </g>
   <g id="patch_12">
    <path d="M 119.327774 334.388487 
L 117.032774 342.038487 
L 114.737774 334.388487 
z
" clip-path="url(#pe8003467ff)"/>
   </g>
   <g id="line2d_21">
    <path d="M 47.050635 375.810609 
L 47.050635 342.038487 
L 187.014914 342.038487 
L 187.014914 409.58273 
L 47.050635 409.58273 
L 47.050635 375.810609 
" clip-path="url(#pe8003467ff)" style="fill: none; stroke: #000000; stroke-width: 2; stroke-linecap: round"/>
   </g>
   <g id="line2d_22">
    <path d="M 217.614914 311.438487 
L 267.905983 311.438487 
L 318.197053 311.438487 
" clip-path="url(#pe8003467ff)" style="fill: none; stroke: #000000; stroke-width: 2; stroke-linecap: round"/>
   </g>
   <g id="line2d_23">
    <path d="M 318.197053 311.438487 
L 318.197053 311.438487 
L 318.197053 311.438487 
L 318.197053 311.438487 
L 318.197053 311.438487 
L 318.197053 311.438487 
" clip-path="url(#pe8003467ff)" style="fill: none; stroke: #000000; stroke-width: 2; stroke-linecap: round"/>
   </g>
   <g id="line2d_24">
    <path d="M 318.197053 311.438487 
L 318.197053 326.738487 
L 318.197053 334.388487 
" clip-path="url(#pe8003467ff)" style="fill: none; stroke: #000000; stroke-width: 2; stroke-linecap: round"/>
   </g>
   <g id="patch_13">
    <path d="M 320.492053 334.388487 
L 318.197053 342.038487 
L 315.902053 334.388487 
z
" clip-path="url(#pe8003467ff)"/>
   </g>
   <g id="line2d_25">
    <path d="M 248.214914 375.810609 
L 248.214914 342.038487 
L 388.179192 342.038487 
L 388.179192 409.58273 
L 248.214914 409.58273 
L 248.214914 375.810609 
" clip-path="url(#pe8003467ff)" style="fill: none; stroke: #000000; stroke-width: 2; stroke-linecap: round"/>
   </g>
   <g id="text_1">
    <g clip-path="url(#pe8003467ff)">
     <!-- Initial population -->
     <g transform="translate(181.888351 28.586398) scale(0.085 -0.085)">
      <defs>
       <path id="DejaVuSans-49" d="M 628 4666 
L 1259 4666 
L 1259 0 
L 628 0 
L 628 4666 
z
" transform="scale(0.015625)"/>
       <path id="DejaVuSans-6e" d="M 3513 2113 
L 3513 0 
L 2938 0 
L 2938 2094 
Q 2938 2591 2744 2837 
Q 2550 3084 2163 3084 
Q 1697 3084 1428 2787 
Q 1159 2491 1159 1978 
L 1159 0 
L 581 0 
L 581 3500 
L 1159 3500 
L 1159 2956 
Q 1366 3272 1645 3428 
Q 1925 3584 2291 3584 
Q 2894 3584 3203 3211 
Q 3513 2838 3513 2113 
z
" transform="scale(0.015625)"/>
       <path id="DejaVuSans-69" d="M 603 3500 
L 1178 3500 
L 1178 0 
L 603 0 
L 603 3500 
z
M 603 4863 
L 1178 4863 
L 1178 4134 
L 603 4134 
L 603 4863 
z
" transform="scale(0.015625)"/>
       <path id="DejaVuSans-74" d="M 1172 4494 
L 1172 3500 
L 2356 3500 
L 2356 3053 
L 1172 3053 
L 1172 1153 
Q 1172 725 1289 603 
Q 1406 481 1766 481 
L 2356 481 
L 2356 0 
L 1766 0 
Q 1100 0 847 248 
Q 594 497 594 1153 
L 594 3053 
L 172 3053 
L 172 3500 
L 594 3500 
L 594 4494 
L 1172 4494 
z
" transform="scale(0.015625)"/>
       <path id="DejaVuSans-61" d="M 2194 1759 
Q 1497 1759 1228 1600 
Q 959 1441 959 1056 
Q 959 750 1161 570 
Q 1363 391 1709 391 
Q 2188 391 2477 730 
Q 2766 1069 2766 1631 
L 2766 1759 
L 2194 1759 
z
M 3341 1997 
L 3341 0 
L 2766 0 
L 2766 531 
Q 2569 213 2275 61 
Q 1981 -91 1556 -91 
Q 1019 -91 701 211 
Q 384 513 384 1019 
Q 384 1609 779 1909 
Q 1175 2209 1959 2209 
L 2766 2209 
L 2766 2266 
Q 2766 2663 2505 2880 
Q 2244 3097 1772 3097 
Q 1472 3097 1187 3025 
Q 903 2953 641 2809 
L 641 3341 
Q 956 3463 1253 3523 
Q 1550 3584 1831 3584 
Q 2591 3584 2966 3190 
Q 3341 2797 3341 1997 
z
" transform="scale(0.015625)"/>
       <path id="DejaVuSans-6c" d="M 603 4863 
L 1178 4863 
L 1178 0 
L 603 0 
L 603 4863 
z
" transform="scale(0.015625)"/>
       <path id="DejaVuSans-20" transform="scale(0.015625)"/>
       <path id="DejaVuSans-70" d="M 1159 525 
L 1159 -1331 
L 581 -1331 
L 581 3500 
L 1159 3500 
L 1159 2969 
Q 1341 3281 1617 3432 
Q 1894 3584 2278 3584 
Q 2916 3584 3314 3078 
Q 3713 2572 3713 1747 
Q 3713 922 3314 415 
Q 2916 -91 2278 -91 
Q 1894 -91 1617 61 
Q 1341 213 1159 525 
z
M 3116 1747 
Q 3116 2381 2855 2742 
Q 2594 3103 2138 3103 
Q 1681 3103 1420 2742 
Q 1159 2381 1159 1747 
Q 1159 1113 1420 752 
Q 1681 391 2138 391 
Q 2594 391 2855 752 
Q 3116 1113 3116 1747 
z
" transform="scale(0.015625)"/>
       <path id="DejaVuSans-6f" d="M 1959 3097 
Q 1497 3097 1228 2736 
Q 959 2375 959 1747 
Q 959 1119 1226 758 
Q 1494 397 1959 397 
Q 2419 397 2687 759 
Q 2956 1122 2956 1747 
Q 2956 2369 2687 2733 
Q 2419 3097 1959 3097 
z
M 1959 3584 
Q 2709 3584 3137 3096 
Q 3566 2609 3566 1747 
Q 3566 888 3137 398 
Q 2709 -91 1959 -91 
Q 1206 -91 779 398 
Q 353 888 353 1747 
Q 353 2609 779 3096 
Q 1206 3584 1959 3584 
z
" transform="scale(0.015625)"/>
       <path id="DejaVuSans-75" d="M 544 1381 
L 544 3500 
L 1119 3500 
L 1119 1403 
Q 1119 906 1312 657 
Q 1506 409 1894 409 
Q 2359 409 2629 706 
Q 2900 1003 2900 1516 
L 2900 3500 
L 3475 3500 
L 3475 0 
L 2900 0 
L 2900 538 
Q 2691 219 2414 64 
Q 2138 -91 1772 -91 
Q 1169 -91 856 284 
Q 544 659 544 1381 
z
M 1991 3584 
L 1991 3584 
z
" transform="scale(0.015625)"/>
      </defs>
      <use xlink:href="#DejaVuSans-49"/>
      <use xlink:href="#DejaVuSans-6e" x="29.492188"/>
      <use xlink:href="#DejaVuSans-69" x="92.871094"/>
      <use xlink:href="#DejaVuSans-74" x="120.654297"/>
      <use xlink:href="#DejaVuSans-69" x="159.863281"/>
      <use xlink:href="#DejaVuSans-61" x="187.646484"/>
      <use xlink:href="#DejaVuSans-6c" x="248.925781"/>
      <use xlink:href="#DejaVuSans-20" x="276.708984"/>
      <use xlink:href="#DejaVuSans-70" x="308.496094"/>
      <use xlink:href="#DejaVuSans-6f" x="371.972656"/>
      <use xlink:href="#DejaVuSans-70" x="433.154297"/>
      <use xlink:href="#DejaVuSans-75" x="496.630859"/>
      <use xlink:href="#DejaVuSans-6c" x="560.009766"/>
      <use xlink:href="#DejaVuSans-61" x="587.792969"/>
      <use xlink:href="#DejaVuSans-74" x="649.072266"/>
      <use xlink:href="#DejaVuSans-69" x="688.28125"/>
      <use xlink:href="#DejaVuSans-6f" x="716.064453"/>
      <use xlink:href="#DejaVuSans-6e" x="777.246094"/>
     </g>
    </g>
    <g clip-path="url(#pe8003467ff)">
     <!-- (n = 50920) -->
     <g transform="translate(191.822062 38.104539) scale(0.085 -0.085)">
      <defs>
       <path id="DejaVuSans-28" d="M 1984 4856 
Q 1566 4138 1362 3434 
Q 1159 2731 1159 2009 
Q 1159 1288 1364 580 
Q 1569 -128 1984 -844 
L 1484 -844 
Q 1016 -109 783 600 
Q 550 1309 550 2009 
Q 550 2706 781 3412 
Q 1013 4119 1484 4856 
L 1984 4856 
z
" transform="scale(0.015625)"/>
       <path id="DejaVuSans-3d" d="M 678 2906 
L 4684 2906 
L 4684 2381 
L 678 2381 
L 678 2906 
z
M 678 1631 
L 4684 1631 
L 4684 1100 
L 678 1100 
L 678 1631 
z
" transform="scale(0.015625)"/>
       <path id="DejaVuSans-35" d="M 691 4666 
L 3169 4666 
L 3169 4134 
L 1269 4134 
L 1269 2991 
Q 1406 3038 1543 3061 
Q 1681 3084 1819 3084 
Q 2600 3084 3056 2656 
Q 3513 2228 3513 1497 
Q 3513 744 3044 326 
Q 2575 -91 1722 -91 
Q 1428 -91 1123 -41 
Q 819 9 494 109 
L 494 744 
Q 775 591 1075 516 
Q 1375 441 1709 441 
Q 2250 441 2565 725 
Q 2881 1009 2881 1497 
Q 2881 1984 2565 2268 
Q 2250 2553 1709 2553 
Q 1456 2553 1204 2497 
Q 953 2441 691 2322 
L 691 4666 
z
" transform="scale(0.015625)"/>
       <path id="DejaVuSans-30" d="M 2034 4250 
Q 1547 4250 1301 3770 
Q 1056 3291 1056 2328 
Q 1056 1369 1301 889 
Q 1547 409 2034 409 
Q 2525 409 2770 889 
Q 3016 1369 3016 2328 
Q 3016 3291 2770 3770 
Q 2525 4250 2034 4250 
z
M 2034 4750 
Q 2819 4750 3233 4129 
Q 3647 3509 3647 2328 
Q 3647 1150 3233 529 
Q 2819 -91 2034 -91 
Q 1250 -91 836 529 
Q 422 1150 422 2328 
Q 422 3509 836 4129 
Q 1250 4750 2034 4750 
z
" transform="scale(0.015625)"/>
       <path id="DejaVuSans-39" d="M 703 97 
L 703 672 
Q 941 559 1184 500 
Q 1428 441 1663 441 
Q 2288 441 2617 861 
Q 2947 1281 2994 2138 
Q 2813 1869 2534 1725 
Q 2256 1581 1919 1581 
Q 1219 1581 811 2004 
Q 403 2428 403 3163 
Q 403 3881 828 4315 
Q 1253 4750 1959 4750 
Q 2769 4750 3195 4129 
Q 3622 3509 3622 2328 
Q 3622 1225 3098 567 
Q 2575 -91 1691 -91 
Q 1453 -91 1209 -44 
Q 966 3 703 97 
z
M 1959 2075 
Q 2384 2075 2632 2365 
Q 2881 2656 2881 3163 
Q 2881 3666 2632 3958 
Q 2384 4250 1959 4250 
Q 1534 4250 1286 3958 
Q 1038 3666 1038 3163 
Q 1038 2656 1286 2365 
Q 1534 2075 1959 2075 
z
" transform="scale(0.015625)"/>
       <path id="DejaVuSans-32" d="M 1228 531 
L 3431 531 
L 3431 0 
L 469 0 
L 469 531 
Q 828 903 1448 1529 
Q 2069 2156 2228 2338 
Q 2531 2678 2651 2914 
Q 2772 3150 2772 3378 
Q 2772 3750 2511 3984 
Q 2250 4219 1831 4219 
Q 1534 4219 1204 4116 
Q 875 4013 500 3803 
L 500 4441 
Q 881 4594 1212 4672 
Q 1544 4750 1819 4750 
Q 2544 4750 2975 4387 
Q 3406 4025 3406 3419 
Q 3406 3131 3298 2873 
Q 3191 2616 2906 2266 
Q 2828 2175 2409 1742 
Q 1991 1309 1228 531 
z
" transform="scale(0.015625)"/>
       <path id="DejaVuSans-29" d="M 513 4856 
L 1013 4856 
Q 1481 4119 1714 3412 
Q 1947 2706 1947 2009 
Q 1947 1309 1714 600 
Q 1481 -109 1013 -844 
L 513 -844 
Q 928 -128 1133 580 
Q 1338 1288 1338 2009 
Q 1338 2731 1133 3434 
Q 928 4138 513 4856 
z
" transform="scale(0.015625)"/>
      </defs>
      <use xlink:href="#DejaVuSans-28"/>
      <use xlink:href="#DejaVuSans-6e" x="39.013672"/>
      <use xlink:href="#DejaVuSans-20" x="102.392578"/>
      <use xlink:href="#DejaVuSans-3d" x="134.179688"/>
      <use xlink:href="#DejaVuSans-20" x="217.96875"/>
      <use xlink:href="#DejaVuSans-35" x="249.755859"/>
      <use xlink:href="#DejaVuSans-30" x="313.378906"/>
      <use xlink:href="#DejaVuSans-39" x="377.001953"/>
      <use xlink:href="#DejaVuSans-32" x="440.625"/>
      <use xlink:href="#DejaVuSans-30" x="504.248047"/>
      <use xlink:href="#DejaVuSans-29" x="567.871094"/>
     </g>
    </g>
   </g>
   <g id="text_2">
    <g clip-path="url(#pe8003467ff)">
     <!-- Female: 0.47 -->
     <g transform="translate(335.626561 52.467106) scale(0.085 -0.085)">
      <defs>
       <path id="DejaVuSans-46" d="M 628 4666 
L 3309 4666 
L 3309 4134 
L 1259 4134 
L 1259 2759 
L 3109 2759 
L 3109 2228 
L 1259 2228 
L 1259 0 
L 628 0 
L 628 4666 
z
" transform="scale(0.015625)"/>
       <path id="DejaVuSans-65" d="M 3597 1894 
L 3597 1613 
L 953 1613 
Q 991 1019 1311 708 
Q 1631 397 2203 397 
Q 2534 397 2845 478 
Q 3156 559 3463 722 
L 3463 178 
Q 3153 47 2828 -22 
Q 2503 -91 2169 -91 
Q 1331 -91 842 396 
Q 353 884 353 1716 
Q 353 2575 817 3079 
Q 1281 3584 2069 3584 
Q 2775 3584 3186 3129 
Q 3597 2675 3597 1894 
z
M 3022 2063 
Q 3016 2534 2758 2815 
Q 2500 3097 2075 3097 
Q 1594 3097 1305 2825 
Q 1016 2553 972 2059 
L 3022 2063 
z
" transform="scale(0.015625)"/>
       <path id="DejaVuSans-6d" d="M 3328 2828 
Q 3544 3216 3844 3400 
Q 4144 3584 4550 3584 
Q 5097 3584 5394 3201 
Q 5691 2819 5691 2113 
L 5691 0 
L 5113 0 
L 5113 2094 
Q 5113 2597 4934 2840 
Q 4756 3084 4391 3084 
Q 3944 3084 3684 2787 
Q 3425 2491 3425 1978 
L 3425 0 
L 2847 0 
L 2847 2094 
Q 2847 2600 2669 2842 
Q 2491 3084 2119 3084 
Q 1678 3084 1418 2786 
Q 1159 2488 1159 1978 
L 1159 0 
L 581 0 
L 581 3500 
L 1159 3500 
L 1159 2956 
Q 1356 3278 1631 3431 
Q 1906 3584 2284 3584 
Q 2666 3584 2933 3390 
Q 3200 3197 3328 2828 
z
" transform="scale(0.015625)"/>
       <path id="DejaVuSans-3a" d="M 750 794 
L 1409 794 
L 1409 0 
L 750 0 
L 750 794 
z
M 750 3309 
L 1409 3309 
L 1409 2516 
L 750 2516 
L 750 3309 
z
" transform="scale(0.015625)"/>
       <path id="DejaVuSans-2e" d="M 684 794 
L 1344 794 
L 1344 0 
L 684 0 
L 684 794 
z
" transform="scale(0.015625)"/>
       <path id="DejaVuSans-34" d="M 2419 4116 
L 825 1625 
L 2419 1625 
L 2419 4116 
z
M 2253 4666 
L 3047 4666 
L 3047 1625 
L 3713 1625 
L 3713 1100 
L 3047 1100 
L 3047 0 
L 2419 0 
L 2419 1100 
L 313 1100 
L 313 1709 
L 2253 4666 
z
" transform="scale(0.015625)"/>
       <path id="DejaVuSans-37" d="M 525 4666 
L 3525 4666 
L 3525 4397 
L 1831 0 
L 1172 0 
L 2766 4134 
L 525 4134 
L 525 4666 
z
" transform="scale(0.015625)"/>
      </defs>
      <use xlink:href="#DejaVuSans-46"/>
      <use xlink:href="#DejaVuSans-65" x="52.019531"/>
      <use xlink:href="#DejaVuSans-6d" x="113.542969"/>
      <use xlink:href="#DejaVuSans-61" x="210.955078"/>
      <use xlink:href="#DejaVuSans-6c" x="272.234375"/>
      <use xlink:href="#DejaVuSans-65" x="300.017578"/>
      <use xlink:href="#DejaVuSans-3a" x="361.541016"/>
      <use xlink:href="#DejaVuSans-20" x="395.232422"/>
      <use xlink:href="#DejaVuSans-30" x="427.019531"/>
      <use xlink:href="#DejaVuSans-2e" x="490.642578"/>
      <use xlink:href="#DejaVuSans-34" x="522.429688"/>
      <use xlink:href="#DejaVuSans-37" x="586.052734"/>
     </g>
    </g>
    <g clip-path="url(#pe8003467ff)">
     <!-- White: 0.68 -->
     <g transform="translate(338.634765 61.985247) scale(0.085 -0.085)">
      <defs>
       <path id="DejaVuSans-57" d="M 213 4666 
L 850 4666 
L 1831 722 
L 2809 4666 
L 3519 4666 
L 4500 722 
L 5478 4666 
L 6119 4666 
L 4947 0 
L 4153 0 
L 3169 4050 
L 2175 0 
L 1381 0 
L 213 4666 
z
" transform="scale(0.015625)"/>
       <path id="DejaVuSans-68" d="M 3513 2113 
L 3513 0 
L 2938 0 
L 2938 2094 
Q 2938 2591 2744 2837 
Q 2550 3084 2163 3084 
Q 1697 3084 1428 2787 
Q 1159 2491 1159 1978 
L 1159 0 
L 581 0 
L 581 4863 
L 1159 4863 
L 1159 2956 
Q 1366 3272 1645 3428 
Q 1925 3584 2291 3584 
Q 2894 3584 3203 3211 
Q 3513 2838 3513 2113 
z
" transform="scale(0.015625)"/>
       <path id="DejaVuSans-36" d="M 2113 2584 
Q 1688 2584 1439 2293 
Q 1191 2003 1191 1497 
Q 1191 994 1439 701 
Q 1688 409 2113 409 
Q 2538 409 2786 701 
Q 3034 994 3034 1497 
Q 3034 2003 2786 2293 
Q 2538 2584 2113 2584 
z
M 3366 4563 
L 3366 3988 
Q 3128 4100 2886 4159 
Q 2644 4219 2406 4219 
Q 1781 4219 1451 3797 
Q 1122 3375 1075 2522 
Q 1259 2794 1537 2939 
Q 1816 3084 2150 3084 
Q 2853 3084 3261 2657 
Q 3669 2231 3669 1497 
Q 3669 778 3244 343 
Q 2819 -91 2113 -91 
Q 1303 -91 875 529 
Q 447 1150 447 2328 
Q 447 3434 972 4092 
Q 1497 4750 2381 4750 
Q 2619 4750 2861 4703 
Q 3103 4656 3366 4563 
z
" transform="scale(0.015625)"/>
       <path id="DejaVuSans-38" d="M 2034 2216 
Q 1584 2216 1326 1975 
Q 1069 1734 1069 1313 
Q 1069 891 1326 650 
Q 1584 409 2034 409 
Q 2484 409 2743 651 
Q 3003 894 3003 1313 
Q 3003 1734 2745 1975 
Q 2488 2216 2034 2216 
z
M 1403 2484 
Q 997 2584 770 2862 
Q 544 3141 544 3541 
Q 544 4100 942 4425 
Q 1341 4750 2034 4750 
Q 2731 4750 3128 4425 
Q 3525 4100 3525 3541 
Q 3525 3141 3298 2862 
Q 3072 2584 2669 2484 
Q 3125 2378 3379 2068 
Q 3634 1759 3634 1313 
Q 3634 634 3220 271 
Q 2806 -91 2034 -91 
Q 1263 -91 848 271 
Q 434 634 434 1313 
Q 434 1759 690 2068 
Q 947 2378 1403 2484 
z
M 1172 3481 
Q 1172 3119 1398 2916 
Q 1625 2713 2034 2713 
Q 2441 2713 2670 2916 
Q 2900 3119 2900 3481 
Q 2900 3844 2670 4047 
Q 2441 4250 2034 4250 
Q 1625 4250 1398 4047 
Q 1172 3844 1172 3481 
z
" transform="scale(0.015625)"/>
      </defs>
      <use xlink:href="#DejaVuSans-57"/>
      <use xlink:href="#DejaVuSans-68" x="98.876953"/>
      <use xlink:href="#DejaVuSans-69" x="162.255859"/>
      <use xlink:href="#DejaVuSans-74" x="190.039062"/>
      <use xlink:href="#DejaVuSans-65" x="229.248047"/>
      <use xlink:href="#DejaVuSans-3a" x="290.771484"/>
      <use xlink:href="#DejaVuSans-20" x="324.462891"/>
      <use xlink:href="#DejaVuSans-30" x="356.25"/>
      <use xlink:href="#DejaVuSans-2e" x="419.873047"/>
      <use xlink:href="#DejaVuSans-36" x="451.660156"/>
      <use xlink:href="#DejaVuSans-38" x="515.283203"/>
     </g>
    </g>
    <g clip-path="url(#pe8003467ff)">
     <!-- Age at admission: 62.83 -->
     <g transform="translate(311.570233 71.503388) scale(0.085 -0.085)">
      <defs>
       <path id="DejaVuSans-41" d="M 2188 4044 
L 1331 1722 
L 3047 1722 
L 2188 4044 
z
M 1831 4666 
L 2547 4666 
L 4325 0 
L 3669 0 
L 3244 1197 
L 1141 1197 
L 716 0 
L 50 0 
L 1831 4666 
z
" transform="scale(0.015625)"/>
       <path id="DejaVuSans-67" d="M 2906 1791 
Q 2906 2416 2648 2759 
Q 2391 3103 1925 3103 
Q 1463 3103 1205 2759 
Q 947 2416 947 1791 
Q 947 1169 1205 825 
Q 1463 481 1925 481 
Q 2391 481 2648 825 
Q 2906 1169 2906 1791 
z
M 3481 434 
Q 3481 -459 3084 -895 
Q 2688 -1331 1869 -1331 
Q 1566 -1331 1297 -1286 
Q 1028 -1241 775 -1147 
L 775 -588 
Q 1028 -725 1275 -790 
Q 1522 -856 1778 -856 
Q 2344 -856 2625 -561 
Q 2906 -266 2906 331 
L 2906 616 
Q 2728 306 2450 153 
Q 2172 0 1784 0 
Q 1141 0 747 490 
Q 353 981 353 1791 
Q 353 2603 747 3093 
Q 1141 3584 1784 3584 
Q 2172 3584 2450 3431 
Q 2728 3278 2906 2969 
L 2906 3500 
L 3481 3500 
L 3481 434 
z
" transform="scale(0.015625)"/>
       <path id="DejaVuSans-64" d="M 2906 2969 
L 2906 4863 
L 3481 4863 
L 3481 0 
L 2906 0 
L 2906 525 
Q 2725 213 2448 61 
Q 2172 -91 1784 -91 
Q 1150 -91 751 415 
Q 353 922 353 1747 
Q 353 2572 751 3078 
Q 1150 3584 1784 3584 
Q 2172 3584 2448 3432 
Q 2725 3281 2906 2969 
z
M 947 1747 
Q 947 1113 1208 752 
Q 1469 391 1925 391 
Q 2381 391 2643 752 
Q 2906 1113 2906 1747 
Q 2906 2381 2643 2742 
Q 2381 3103 1925 3103 
Q 1469 3103 1208 2742 
Q 947 2381 947 1747 
z
" transform="scale(0.015625)"/>
       <path id="DejaVuSans-73" d="M 2834 3397 
L 2834 2853 
Q 2591 2978 2328 3040 
Q 2066 3103 1784 3103 
Q 1356 3103 1142 2972 
Q 928 2841 928 2578 
Q 928 2378 1081 2264 
Q 1234 2150 1697 2047 
L 1894 2003 
Q 2506 1872 2764 1633 
Q 3022 1394 3022 966 
Q 3022 478 2636 193 
Q 2250 -91 1575 -91 
Q 1294 -91 989 -36 
Q 684 19 347 128 
L 347 722 
Q 666 556 975 473 
Q 1284 391 1588 391 
Q 1994 391 2212 530 
Q 2431 669 2431 922 
Q 2431 1156 2273 1281 
Q 2116 1406 1581 1522 
L 1381 1569 
Q 847 1681 609 1914 
Q 372 2147 372 2553 
Q 372 3047 722 3315 
Q 1072 3584 1716 3584 
Q 2034 3584 2315 3537 
Q 2597 3491 2834 3397 
z
" transform="scale(0.015625)"/>
       <path id="DejaVuSans-33" d="M 2597 2516 
Q 3050 2419 3304 2112 
Q 3559 1806 3559 1356 
Q 3559 666 3084 287 
Q 2609 -91 1734 -91 
Q 1441 -91 1130 -33 
Q 819 25 488 141 
L 488 750 
Q 750 597 1062 519 
Q 1375 441 1716 441 
Q 2309 441 2620 675 
Q 2931 909 2931 1356 
Q 2931 1769 2642 2001 
Q 2353 2234 1838 2234 
L 1294 2234 
L 1294 2753 
L 1863 2753 
Q 2328 2753 2575 2939 
Q 2822 3125 2822 3475 
Q 2822 3834 2567 4026 
Q 2313 4219 1838 4219 
Q 1578 4219 1281 4162 
Q 984 4106 628 3988 
L 628 4550 
Q 988 4650 1302 4700 
Q 1616 4750 1894 4750 
Q 2613 4750 3031 4423 
Q 3450 4097 3450 3541 
Q 3450 3153 3228 2886 
Q 3006 2619 2597 2516 
z
" transform="scale(0.015625)"/>
      </defs>
      <use xlink:href="#DejaVuSans-41"/>
      <use xlink:href="#DejaVuSans-67" x="68.408203"/>
      <use xlink:href="#DejaVuSans-65" x="131.884766"/>
      <use xlink:href="#DejaVuSans-20" x="193.408203"/>
      <use xlink:href="#DejaVuSans-61" x="225.195312"/>
      <use xlink:href="#DejaVuSans-74" x="286.474609"/>
      <use xlink:href="#DejaVuSans-20" x="325.683594"/>
      <use xlink:href="#DejaVuSans-61" x="357.470703"/>
      <use xlink:href="#DejaVuSans-64" x="418.75"/>
      <use xlink:href="#DejaVuSans-6d" x="482.226562"/>
      <use xlink:href="#DejaVuSans-69" x="579.638672"/>
      <use xlink:href="#DejaVuSans-73" x="607.421875"/>
      <use xlink:href="#DejaVuSans-73" x="659.521484"/>
      <use xlink:href="#DejaVuSans-69" x="711.621094"/>
      <use xlink:href="#DejaVuSans-6f" x="739.404297"/>
      <use xlink:href="#DejaVuSans-6e" x="800.585938"/>
      <use xlink:href="#DejaVuSans-3a" x="863.964844"/>
      <use xlink:href="#DejaVuSans-20" x="897.65625"/>
      <use xlink:href="#DejaVuSans-36" x="929.443359"/>
      <use xlink:href="#DejaVuSans-32" x="993.066406"/>
      <use xlink:href="#DejaVuSans-2e" x="1056.689453"/>
      <use xlink:href="#DejaVuSans-38" x="1088.476562"/>
      <use xlink:href="#DejaVuSans-33" x="1152.099609"/>
     </g>
    </g>
    <g clip-path="url(#pe8003467ff)">
     <!-- (n = 10641) -->
     <g transform="translate(337.444765 81.021528) scale(0.085 -0.085)">
      <defs>
       <path id="DejaVuSans-31" d="M 794 531 
L 1825 531 
L 1825 4091 
L 703 3866 
L 703 4441 
L 1819 4666 
L 2450 4666 
L 2450 531 
L 3481 531 
L 3481 0 
L 794 0 
L 794 531 
z
" transform="scale(0.015625)"/>
      </defs>
      <use xlink:href="#DejaVuSans-28"/>
      <use xlink:href="#DejaVuSans-6e" x="39.013672"/>
      <use xlink:href="#DejaVuSans-20" x="102.392578"/>
      <use xlink:href="#DejaVuSans-3d" x="134.179688"/>
      <use xlink:href="#DejaVuSans-20" x="217.96875"/>
      <use xlink:href="#DejaVuSans-31" x="249.755859"/>
      <use xlink:href="#DejaVuSans-30" x="313.378906"/>
      <use xlink:href="#DejaVuSans-36" x="377.001953"/>
      <use xlink:href="#DejaVuSans-34" x="440.625"/>
      <use xlink:href="#DejaVuSans-31" x="504.248047"/>
      <use xlink:href="#DejaVuSans-29" x="567.871094"/>
     </g>
    </g>
   </g>
   <g id="text_3">
    <g clip-path="url(#pe8003467ff)">
     <!-- Aged over 18, ICU lOS &gt;= 1 -->
     <g transform="translate(157.97214 95.384096) scale(0.085 -0.085)">
      <defs>
       <path id="DejaVuSans-76" d="M 191 3500 
L 800 3500 
L 1894 563 
L 2988 3500 
L 3597 3500 
L 2284 0 
L 1503 0 
L 191 3500 
z
" transform="scale(0.015625)"/>
       <path id="DejaVuSans-72" d="M 2631 2963 
Q 2534 3019 2420 3045 
Q 2306 3072 2169 3072 
Q 1681 3072 1420 2755 
Q 1159 2438 1159 1844 
L 1159 0 
L 581 0 
L 581 3500 
L 1159 3500 
L 1159 2956 
Q 1341 3275 1631 3429 
Q 1922 3584 2338 3584 
Q 2397 3584 2469 3576 
Q 2541 3569 2628 3553 
L 2631 2963 
z
" transform="scale(0.015625)"/>
       <path id="DejaVuSans-2c" d="M 750 794 
L 1409 794 
L 1409 256 
L 897 -744 
L 494 -744 
L 750 256 
L 750 794 
z
" transform="scale(0.015625)"/>
       <path id="DejaVuSans-43" d="M 4122 4306 
L 4122 3641 
Q 3803 3938 3442 4084 
Q 3081 4231 2675 4231 
Q 1875 4231 1450 3742 
Q 1025 3253 1025 2328 
Q 1025 1406 1450 917 
Q 1875 428 2675 428 
Q 3081 428 3442 575 
Q 3803 722 4122 1019 
L 4122 359 
Q 3791 134 3420 21 
Q 3050 -91 2638 -91 
Q 1578 -91 968 557 
Q 359 1206 359 2328 
Q 359 3453 968 4101 
Q 1578 4750 2638 4750 
Q 3056 4750 3426 4639 
Q 3797 4528 4122 4306 
z
" transform="scale(0.015625)"/>
       <path id="DejaVuSans-55" d="M 556 4666 
L 1191 4666 
L 1191 1831 
Q 1191 1081 1462 751 
Q 1734 422 2344 422 
Q 2950 422 3222 751 
Q 3494 1081 3494 1831 
L 3494 4666 
L 4128 4666 
L 4128 1753 
Q 4128 841 3676 375 
Q 3225 -91 2344 -91 
Q 1459 -91 1007 375 
Q 556 841 556 1753 
L 556 4666 
z
" transform="scale(0.015625)"/>
       <path id="DejaVuSans-4f" d="M 2522 4238 
Q 1834 4238 1429 3725 
Q 1025 3213 1025 2328 
Q 1025 1447 1429 934 
Q 1834 422 2522 422 
Q 3209 422 3611 934 
Q 4013 1447 4013 2328 
Q 4013 3213 3611 3725 
Q 3209 4238 2522 4238 
z
M 2522 4750 
Q 3503 4750 4090 4092 
Q 4678 3434 4678 2328 
Q 4678 1225 4090 567 
Q 3503 -91 2522 -91 
Q 1538 -91 948 565 
Q 359 1222 359 2328 
Q 359 3434 948 4092 
Q 1538 4750 2522 4750 
z
" transform="scale(0.015625)"/>
       <path id="DejaVuSans-53" d="M 3425 4513 
L 3425 3897 
Q 3066 4069 2747 4153 
Q 2428 4238 2131 4238 
Q 1616 4238 1336 4038 
Q 1056 3838 1056 3469 
Q 1056 3159 1242 3001 
Q 1428 2844 1947 2747 
L 2328 2669 
Q 3034 2534 3370 2195 
Q 3706 1856 3706 1288 
Q 3706 609 3251 259 
Q 2797 -91 1919 -91 
Q 1588 -91 1214 -16 
Q 841 59 441 206 
L 441 856 
Q 825 641 1194 531 
Q 1563 422 1919 422 
Q 2459 422 2753 634 
Q 3047 847 3047 1241 
Q 3047 1584 2836 1778 
Q 2625 1972 2144 2069 
L 1759 2144 
Q 1053 2284 737 2584 
Q 422 2884 422 3419 
Q 422 4038 858 4394 
Q 1294 4750 2059 4750 
Q 2388 4750 2728 4690 
Q 3069 4631 3425 4513 
z
" transform="scale(0.015625)"/>
       <path id="DejaVuSans-3e" d="M 678 3150 
L 678 3719 
L 4684 2266 
L 4684 1747 
L 678 294 
L 678 863 
L 3897 2003 
L 678 3150 
z
" transform="scale(0.015625)"/>
      </defs>
      <use xlink:href="#DejaVuSans-41"/>
      <use xlink:href="#DejaVuSans-67" x="68.408203"/>
      <use xlink:href="#DejaVuSans-65" x="131.884766"/>
      <use xlink:href="#DejaVuSans-64" x="193.408203"/>
      <use xlink:href="#DejaVuSans-20" x="256.884766"/>
      <use xlink:href="#DejaVuSans-6f" x="288.671875"/>
      <use xlink:href="#DejaVuSans-76" x="349.853516"/>
      <use xlink:href="#DejaVuSans-65" x="409.033203"/>
      <use xlink:href="#DejaVuSans-72" x="470.556641"/>
      <use xlink:href="#DejaVuSans-20" x="511.669922"/>
      <use xlink:href="#DejaVuSans-31" x="543.457031"/>
      <use xlink:href="#DejaVuSans-38" x="607.080078"/>
      <use xlink:href="#DejaVuSans-2c" x="670.703125"/>
      <use xlink:href="#DejaVuSans-20" x="702.490234"/>
      <use xlink:href="#DejaVuSans-49" x="734.277344"/>
      <use xlink:href="#DejaVuSans-43" x="763.769531"/>
      <use xlink:href="#DejaVuSans-55" x="833.59375"/>
      <use xlink:href="#DejaVuSans-20" x="906.787109"/>
      <use xlink:href="#DejaVuSans-6c" x="938.574219"/>
      <use xlink:href="#DejaVuSans-4f" x="966.357422"/>
      <use xlink:href="#DejaVuSans-53" x="1045.068359"/>
      <use xlink:href="#DejaVuSans-20" x="1108.544922"/>
      <use xlink:href="#DejaVuSans-3e" x="1140.332031"/>
      <use xlink:href="#DejaVuSans-3d" x="1224.121094"/>
      <use xlink:href="#DejaVuSans-20" x="1307.910156"/>
      <use xlink:href="#DejaVuSans-31" x="1339.697266"/>
     </g>
    </g>
    <g clip-path="url(#pe8003467ff)">
     <!-- (n = 40279) -->
     <g transform="translate(191.822062 104.902236) scale(0.085 -0.085)">
      <use xlink:href="#DejaVuSans-28"/>
      <use xlink:href="#DejaVuSans-6e" x="39.013672"/>
      <use xlink:href="#DejaVuSans-20" x="102.392578"/>
      <use xlink:href="#DejaVuSans-3d" x="134.179688"/>
      <use xlink:href="#DejaVuSans-20" x="217.96875"/>
      <use xlink:href="#DejaVuSans-34" x="249.755859"/>
      <use xlink:href="#DejaVuSans-30" x="313.378906"/>
      <use xlink:href="#DejaVuSans-32" x="377.001953"/>
      <use xlink:href="#DejaVuSans-37" x="440.625"/>
      <use xlink:href="#DejaVuSans-39" x="504.248047"/>
      <use xlink:href="#DejaVuSans-29" x="567.871094"/>
     </g>
    </g>
   </g>
   <g id="text_4">
    <g clip-path="url(#pe8003467ff)">
     <!-- Female: 0.45 -->
     <g transform="translate(44.337119 119.264804) scale(0.085 -0.085)">
      <use xlink:href="#DejaVuSans-46"/>
      <use xlink:href="#DejaVuSans-65" x="52.019531"/>
      <use xlink:href="#DejaVuSans-6d" x="113.542969"/>
      <use xlink:href="#DejaVuSans-61" x="210.955078"/>
      <use xlink:href="#DejaVuSans-6c" x="272.234375"/>
      <use xlink:href="#DejaVuSans-65" x="300.017578"/>
      <use xlink:href="#DejaVuSans-3a" x="361.541016"/>
      <use xlink:href="#DejaVuSans-20" x="395.232422"/>
      <use xlink:href="#DejaVuSans-30" x="427.019531"/>
      <use xlink:href="#DejaVuSans-2e" x="490.642578"/>
      <use xlink:href="#DejaVuSans-34" x="522.429688"/>
      <use xlink:href="#DejaVuSans-35" x="586.052734"/>
     </g>
    </g>
    <g clip-path="url(#pe8003467ff)">
     <!-- White: 0.67 -->
     <g transform="translate(47.345322 128.782944) scale(0.085 -0.085)">
      <use xlink:href="#DejaVuSans-57"/>
      <use xlink:href="#DejaVuSans-68" x="98.876953"/>
      <use xlink:href="#DejaVuSans-69" x="162.255859"/>
      <use xlink:href="#DejaVuSans-74" x="190.039062"/>
      <use xlink:href="#DejaVuSans-65" x="229.248047"/>
      <use xlink:href="#DejaVuSans-3a" x="290.771484"/>
      <use xlink:href="#DejaVuSans-20" x="324.462891"/>
      <use xlink:href="#DejaVuSans-30" x="356.25"/>
      <use xlink:href="#DejaVuSans-2e" x="419.873047"/>
      <use xlink:href="#DejaVuSans-36" x="451.660156"/>
      <use xlink:href="#DejaVuSans-37" x="515.283203"/>
     </g>
    </g>
    <g clip-path="url(#pe8003467ff)">
     <!-- Age at admission: 64.39 -->
     <g transform="translate(20.280791 138.301085) scale(0.085 -0.085)">
      <use xlink:href="#DejaVuSans-41"/>
      <use xlink:href="#DejaVuSans-67" x="68.408203"/>
      <use xlink:href="#DejaVuSans-65" x="131.884766"/>
      <use xlink:href="#DejaVuSans-20" x="193.408203"/>
      <use xlink:href="#DejaVuSans-61" x="225.195312"/>
      <use xlink:href="#DejaVuSans-74" x="286.474609"/>
      <use xlink:href="#DejaVuSans-20" x="325.683594"/>
      <use xlink:href="#DejaVuSans-61" x="357.470703"/>
      <use xlink:href="#DejaVuSans-64" x="418.75"/>
      <use xlink:href="#DejaVuSans-6d" x="482.226562"/>
      <use xlink:href="#DejaVuSans-69" x="579.638672"/>
      <use xlink:href="#DejaVuSans-73" x="607.421875"/>
      <use xlink:href="#DejaVuSans-73" x="659.521484"/>
      <use xlink:href="#DejaVuSans-69" x="711.621094"/>
      <use xlink:href="#DejaVuSans-6f" x="739.404297"/>
      <use xlink:href="#DejaVuSans-6e" x="800.585938"/>
      <use xlink:href="#DejaVuSans-3a" x="863.964844"/>
      <use xlink:href="#DejaVuSans-20" x="897.65625"/>
      <use xlink:href="#DejaVuSans-36" x="929.443359"/>
      <use xlink:href="#DejaVuSans-34" x="993.066406"/>
      <use xlink:href="#DejaVuSans-2e" x="1056.689453"/>
      <use xlink:href="#DejaVuSans-33" x="1088.476562"/>
      <use xlink:href="#DejaVuSans-39" x="1152.099609"/>
     </g>
    </g>
    <g clip-path="url(#pe8003467ff)">
     <!-- (n = 19991) -->
     <g transform="translate(46.155322 147.819226) scale(0.085 -0.085)">
      <use xlink:href="#DejaVuSans-28"/>
      <use xlink:href="#DejaVuSans-6e" x="39.013672"/>
      <use xlink:href="#DejaVuSans-20" x="102.392578"/>
      <use xlink:href="#DejaVuSans-3d" x="134.179688"/>
      <use xlink:href="#DejaVuSans-20" x="217.96875"/>
      <use xlink:href="#DejaVuSans-31" x="249.755859"/>
      <use xlink:href="#DejaVuSans-39" x="313.378906"/>
      <use xlink:href="#DejaVuSans-39" x="377.001953"/>
      <use xlink:href="#DejaVuSans-39" x="440.625"/>
      <use xlink:href="#DejaVuSans-31" x="504.248047"/>
      <use xlink:href="#DejaVuSans-29" x="567.871094"/>
     </g>
    </g>
   </g>
   <g id="text_5">
    <g clip-path="url(#pe8003467ff)">
     <!-- Aged over 18, ICU lOS &gt;= 1 -->
     <g transform="translate(157.97214 162.647147) scale(0.085 -0.085)">
      <use xlink:href="#DejaVuSans-41"/>
      <use xlink:href="#DejaVuSans-67" x="68.408203"/>
      <use xlink:href="#DejaVuSans-65" x="131.884766"/>
      <use xlink:href="#DejaVuSans-64" x="193.408203"/>
      <use xlink:href="#DejaVuSans-20" x="256.884766"/>
      <use xlink:href="#DejaVuSans-6f" x="288.671875"/>
      <use xlink:href="#DejaVuSans-76" x="349.853516"/>
      <use xlink:href="#DejaVuSans-65" x="409.033203"/>
      <use xlink:href="#DejaVuSans-72" x="470.556641"/>
      <use xlink:href="#DejaVuSans-20" x="511.669922"/>
      <use xlink:href="#DejaVuSans-31" x="543.457031"/>
      <use xlink:href="#DejaVuSans-38" x="607.080078"/>
      <use xlink:href="#DejaVuSans-2c" x="670.703125"/>
      <use xlink:href="#DejaVuSans-20" x="702.490234"/>
      <use xlink:href="#DejaVuSans-49" x="734.277344"/>
      <use xlink:href="#DejaVuSans-43" x="763.769531"/>
      <use xlink:href="#DejaVuSans-55" x="833.59375"/>
      <use xlink:href="#DejaVuSans-20" x="906.787109"/>
      <use xlink:href="#DejaVuSans-6c" x="938.574219"/>
      <use xlink:href="#DejaVuSans-4f" x="966.357422"/>
      <use xlink:href="#DejaVuSans-53" x="1045.068359"/>
      <use xlink:href="#DejaVuSans-20" x="1108.544922"/>
      <use xlink:href="#DejaVuSans-3e" x="1140.332031"/>
      <use xlink:href="#DejaVuSans-3d" x="1224.121094"/>
      <use xlink:href="#DejaVuSans-20" x="1307.910156"/>
      <use xlink:href="#DejaVuSans-31" x="1339.697266"/>
     </g>
    </g>
    <g clip-path="url(#pe8003467ff)">
     <!-- Sepsis patients -->
     <g transform="translate(185.306281 172.165288) scale(0.085 -0.085)">
      <use xlink:href="#DejaVuSans-53"/>
      <use xlink:href="#DejaVuSans-65" x="63.476562"/>
      <use xlink:href="#DejaVuSans-70" x="125"/>
      <use xlink:href="#DejaVuSans-73" x="188.476562"/>
      <use xlink:href="#DejaVuSans-69" x="240.576172"/>
      <use xlink:href="#DejaVuSans-73" x="268.359375"/>
      <use xlink:href="#DejaVuSans-20" x="320.458984"/>
      <use xlink:href="#DejaVuSans-70" x="352.246094"/>
      <use xlink:href="#DejaVuSans-61" x="415.722656"/>
      <use xlink:href="#DejaVuSans-74" x="477.001953"/>
      <use xlink:href="#DejaVuSans-69" x="516.210938"/>
      <use xlink:href="#DejaVuSans-65" x="543.994141"/>
      <use xlink:href="#DejaVuSans-6e" x="605.517578"/>
      <use xlink:href="#DejaVuSans-74" x="668.896484"/>
      <use xlink:href="#DejaVuSans-73" x="708.105469"/>
     </g>
    </g>
    <g clip-path="url(#pe8003467ff)">
     <!-- (n = 20288) -->
     <g transform="translate(191.822062 181.683428) scale(0.085 -0.085)">
      <use xlink:href="#DejaVuSans-28"/>
      <use xlink:href="#DejaVuSans-6e" x="39.013672"/>
      <use xlink:href="#DejaVuSans-20" x="102.392578"/>
      <use xlink:href="#DejaVuSans-3d" x="134.179688"/>
      <use xlink:href="#DejaVuSans-20" x="217.96875"/>
      <use xlink:href="#DejaVuSans-32" x="249.755859"/>
      <use xlink:href="#DejaVuSans-30" x="313.378906"/>
      <use xlink:href="#DejaVuSans-32" x="377.001953"/>
      <use xlink:href="#DejaVuSans-38" x="440.625"/>
      <use xlink:href="#DejaVuSans-38" x="504.248047"/>
      <use xlink:href="#DejaVuSans-29" x="567.871094"/>
     </g>
    </g>
   </g>
   <g id="text_6">
    <g clip-path="url(#pe8003467ff)">
     <!-- Female: 0.45 -->
     <g transform="translate(335.678987 196.51135) scale(0.085 -0.085)">
      <use xlink:href="#DejaVuSans-46"/>
      <use xlink:href="#DejaVuSans-65" x="52.019531"/>
      <use xlink:href="#DejaVuSans-6d" x="113.542969"/>
      <use xlink:href="#DejaVuSans-61" x="210.955078"/>
      <use xlink:href="#DejaVuSans-6c" x="272.234375"/>
      <use xlink:href="#DejaVuSans-65" x="300.017578"/>
      <use xlink:href="#DejaVuSans-3a" x="361.541016"/>
      <use xlink:href="#DejaVuSans-20" x="395.232422"/>
      <use xlink:href="#DejaVuSans-30" x="427.019531"/>
      <use xlink:href="#DejaVuSans-2e" x="490.642578"/>
      <use xlink:href="#DejaVuSans-34" x="522.429688"/>
      <use xlink:href="#DejaVuSans-35" x="586.052734"/>
     </g>
    </g>
    <g clip-path="url(#pe8003467ff)">
     <!-- White: 0.66 -->
     <g transform="translate(338.687191 206.029491) scale(0.085 -0.085)">
      <use xlink:href="#DejaVuSans-57"/>
      <use xlink:href="#DejaVuSans-68" x="98.876953"/>
      <use xlink:href="#DejaVuSans-69" x="162.255859"/>
      <use xlink:href="#DejaVuSans-74" x="190.039062"/>
      <use xlink:href="#DejaVuSans-65" x="229.248047"/>
      <use xlink:href="#DejaVuSans-3a" x="290.771484"/>
      <use xlink:href="#DejaVuSans-20" x="324.462891"/>
      <use xlink:href="#DejaVuSans-30" x="356.25"/>
      <use xlink:href="#DejaVuSans-2e" x="419.873047"/>
      <use xlink:href="#DejaVuSans-36" x="451.660156"/>
      <use xlink:href="#DejaVuSans-36" x="515.283203"/>
     </g>
    </g>
    <g clip-path="url(#pe8003467ff)">
     <!-- Age at admission: 67.48 -->
     <g transform="translate(311.622659 215.547631) scale(0.085 -0.085)">
      <use xlink:href="#DejaVuSans-41"/>
      <use xlink:href="#DejaVuSans-67" x="68.408203"/>
      <use xlink:href="#DejaVuSans-65" x="131.884766"/>
      <use xlink:href="#DejaVuSans-20" x="193.408203"/>
      <use xlink:href="#DejaVuSans-61" x="225.195312"/>
      <use xlink:href="#DejaVuSans-74" x="286.474609"/>
      <use xlink:href="#DejaVuSans-20" x="325.683594"/>
      <use xlink:href="#DejaVuSans-61" x="357.470703"/>
      <use xlink:href="#DejaVuSans-64" x="418.75"/>
      <use xlink:href="#DejaVuSans-6d" x="482.226562"/>
      <use xlink:href="#DejaVuSans-69" x="579.638672"/>
      <use xlink:href="#DejaVuSans-73" x="607.421875"/>
      <use xlink:href="#DejaVuSans-73" x="659.521484"/>
      <use xlink:href="#DejaVuSans-69" x="711.621094"/>
      <use xlink:href="#DejaVuSans-6f" x="739.404297"/>
      <use xlink:href="#DejaVuSans-6e" x="800.585938"/>
      <use xlink:href="#DejaVuSans-3a" x="863.964844"/>
      <use xlink:href="#DejaVuSans-20" x="897.65625"/>
      <use xlink:href="#DejaVuSans-36" x="929.443359"/>
      <use xlink:href="#DejaVuSans-37" x="993.066406"/>
      <use xlink:href="#DejaVuSans-2e" x="1056.689453"/>
      <use xlink:href="#DejaVuSans-34" x="1088.476562"/>
      <use xlink:href="#DejaVuSans-38" x="1152.099609"/>
     </g>
    </g>
    <g clip-path="url(#pe8003467ff)">
     <!-- (n = 1867) -->
     <g transform="translate(340.201253 225.065772) scale(0.085 -0.085)">
      <use xlink:href="#DejaVuSans-28"/>
      <use xlink:href="#DejaVuSans-6e" x="39.013672"/>
      <use xlink:href="#DejaVuSans-20" x="102.392578"/>
      <use xlink:href="#DejaVuSans-3d" x="134.179688"/>
      <use xlink:href="#DejaVuSans-20" x="217.96875"/>
      <use xlink:href="#DejaVuSans-31" x="249.755859"/>
      <use xlink:href="#DejaVuSans-38" x="313.378906"/>
      <use xlink:href="#DejaVuSans-36" x="377.001953"/>
      <use xlink:href="#DejaVuSans-37" x="440.625"/>
      <use xlink:href="#DejaVuSans-29" x="504.248047"/>
     </g>
    </g>
   </g>
   <g id="text_7">
    <g clip-path="url(#pe8003467ff)">
     <!-- Aged over 18, ICU lOS &gt;= 1 -->
     <g transform="translate(157.97214 240.359047) scale(0.085 -0.085)">
      <use xlink:href="#DejaVuSans-41"/>
      <use xlink:href="#DejaVuSans-67" x="68.408203"/>
      <use xlink:href="#DejaVuSans-65" x="131.884766"/>
      <use xlink:href="#DejaVuSans-64" x="193.408203"/>
      <use xlink:href="#DejaVuSans-20" x="256.884766"/>
      <use xlink:href="#DejaVuSans-6f" x="288.671875"/>
      <use xlink:href="#DejaVuSans-76" x="349.853516"/>
      <use xlink:href="#DejaVuSans-65" x="409.033203"/>
      <use xlink:href="#DejaVuSans-72" x="470.556641"/>
      <use xlink:href="#DejaVuSans-20" x="511.669922"/>
      <use xlink:href="#DejaVuSans-31" x="543.457031"/>
      <use xlink:href="#DejaVuSans-38" x="607.080078"/>
      <use xlink:href="#DejaVuSans-2c" x="670.703125"/>
      <use xlink:href="#DejaVuSans-20" x="702.490234"/>
      <use xlink:href="#DejaVuSans-49" x="734.277344"/>
      <use xlink:href="#DejaVuSans-43" x="763.769531"/>
      <use xlink:href="#DejaVuSans-55" x="833.59375"/>
      <use xlink:href="#DejaVuSans-20" x="906.787109"/>
      <use xlink:href="#DejaVuSans-6c" x="938.574219"/>
      <use xlink:href="#DejaVuSans-4f" x="966.357422"/>
      <use xlink:href="#DejaVuSans-53" x="1045.068359"/>
      <use xlink:href="#DejaVuSans-20" x="1108.544922"/>
      <use xlink:href="#DejaVuSans-3e" x="1140.332031"/>
      <use xlink:href="#DejaVuSans-3d" x="1224.121094"/>
      <use xlink:href="#DejaVuSans-20" x="1307.910156"/>
      <use xlink:href="#DejaVuSans-31" x="1339.697266"/>
     </g>
    </g>
    <g clip-path="url(#pe8003467ff)">
     <!-- Sepsis patients -->
     <g transform="translate(185.306281 249.877188) scale(0.085 -0.085)">
      <use xlink:href="#DejaVuSans-53"/>
      <use xlink:href="#DejaVuSans-65" x="63.476562"/>
      <use xlink:href="#DejaVuSans-70" x="125"/>
      <use xlink:href="#DejaVuSans-73" x="188.476562"/>
      <use xlink:href="#DejaVuSans-69" x="240.576172"/>
      <use xlink:href="#DejaVuSans-73" x="268.359375"/>
      <use xlink:href="#DejaVuSans-20" x="320.458984"/>
      <use xlink:href="#DejaVuSans-70" x="352.246094"/>
      <use xlink:href="#DejaVuSans-61" x="415.722656"/>
      <use xlink:href="#DejaVuSans-74" x="477.001953"/>
      <use xlink:href="#DejaVuSans-69" x="516.210938"/>
      <use xlink:href="#DejaVuSans-65" x="543.994141"/>
      <use xlink:href="#DejaVuSans-6e" x="605.517578"/>
      <use xlink:href="#DejaVuSans-74" x="668.896484"/>
      <use xlink:href="#DejaVuSans-73" x="708.105469"/>
     </g>
    </g>
    <g clip-path="url(#pe8003467ff)">
     <!-- Crystalloids in first 24h -->
     <g transform="translate(168.513468 259.395329) scale(0.085 -0.085)">
      <defs>
       <path id="DejaVuSans-79" d="M 2059 -325 
Q 1816 -950 1584 -1140 
Q 1353 -1331 966 -1331 
L 506 -1331 
L 506 -850 
L 844 -850 
Q 1081 -850 1212 -737 
Q 1344 -625 1503 -206 
L 1606 56 
L 191 3500 
L 800 3500 
L 1894 763 
L 2988 3500 
L 3597 3500 
L 2059 -325 
z
" transform="scale(0.015625)"/>
       <path id="DejaVuSans-66" d="M 2375 4863 
L 2375 4384 
L 1825 4384 
Q 1516 4384 1395 4259 
Q 1275 4134 1275 3809 
L 1275 3500 
L 2222 3500 
L 2222 3053 
L 1275 3053 
L 1275 0 
L 697 0 
L 697 3053 
L 147 3053 
L 147 3500 
L 697 3500 
L 697 3744 
Q 697 4328 969 4595 
Q 1241 4863 1831 4863 
L 2375 4863 
z
" transform="scale(0.015625)"/>
      </defs>
      <use xlink:href="#DejaVuSans-43"/>
      <use xlink:href="#DejaVuSans-72" x="69.824219"/>
      <use xlink:href="#DejaVuSans-79" x="110.9375"/>
      <use xlink:href="#DejaVuSans-73" x="170.117188"/>
      <use xlink:href="#DejaVuSans-74" x="222.216797"/>
      <use xlink:href="#DejaVuSans-61" x="261.425781"/>
      <use xlink:href="#DejaVuSans-6c" x="322.705078"/>
      <use xlink:href="#DejaVuSans-6c" x="350.488281"/>
      <use xlink:href="#DejaVuSans-6f" x="378.271484"/>
      <use xlink:href="#DejaVuSans-69" x="439.453125"/>
      <use xlink:href="#DejaVuSans-64" x="467.236328"/>
      <use xlink:href="#DejaVuSans-73" x="530.712891"/>
      <use xlink:href="#DejaVuSans-20" x="582.8125"/>
      <use xlink:href="#DejaVuSans-69" x="614.599609"/>
      <use xlink:href="#DejaVuSans-6e" x="642.382812"/>
      <use xlink:href="#DejaVuSans-20" x="705.761719"/>
      <use xlink:href="#DejaVuSans-66" x="737.548828"/>
      <use xlink:href="#DejaVuSans-69" x="772.753906"/>
      <use xlink:href="#DejaVuSans-72" x="800.537109"/>
      <use xlink:href="#DejaVuSans-73" x="841.650391"/>
      <use xlink:href="#DejaVuSans-74" x="893.75"/>
      <use xlink:href="#DejaVuSans-20" x="932.958984"/>
      <use xlink:href="#DejaVuSans-32" x="964.746094"/>
      <use xlink:href="#DejaVuSans-34" x="1028.369141"/>
      <use xlink:href="#DejaVuSans-68" x="1091.992188"/>
     </g>
    </g>
    <g clip-path="url(#pe8003467ff)">
     <!-- (n = 18421) -->
     <g transform="translate(191.822062 268.913469) scale(0.085 -0.085)">
      <use xlink:href="#DejaVuSans-28"/>
      <use xlink:href="#DejaVuSans-6e" x="39.013672"/>
      <use xlink:href="#DejaVuSans-20" x="102.392578"/>
      <use xlink:href="#DejaVuSans-3d" x="134.179688"/>
      <use xlink:href="#DejaVuSans-20" x="217.96875"/>
      <use xlink:href="#DejaVuSans-31" x="249.755859"/>
      <use xlink:href="#DejaVuSans-38" x="313.378906"/>
      <use xlink:href="#DejaVuSans-34" x="377.001953"/>
      <use xlink:href="#DejaVuSans-32" x="440.625"/>
      <use xlink:href="#DejaVuSans-31" x="504.248047"/>
      <use xlink:href="#DejaVuSans-29" x="567.871094"/>
     </g>
    </g>
   </g>
   <g id="text_8">
    <g clip-path="url(#pe8003467ff)">
     <!-- Aged over 18, ICU lOS &gt;= 1 -->
     <g transform="translate(57.390001 359.119796) scale(0.085 -0.085)">
      <use xlink:href="#DejaVuSans-41"/>
      <use xlink:href="#DejaVuSans-67" x="68.408203"/>
      <use xlink:href="#DejaVuSans-65" x="131.884766"/>
      <use xlink:href="#DejaVuSans-64" x="193.408203"/>
      <use xlink:href="#DejaVuSans-20" x="256.884766"/>
      <use xlink:href="#DejaVuSans-6f" x="288.671875"/>
      <use xlink:href="#DejaVuSans-76" x="349.853516"/>
      <use xlink:href="#DejaVuSans-65" x="409.033203"/>
      <use xlink:href="#DejaVuSans-72" x="470.556641"/>
      <use xlink:href="#DejaVuSans-20" x="511.669922"/>
      <use xlink:href="#DejaVuSans-31" x="543.457031"/>
      <use xlink:href="#DejaVuSans-38" x="607.080078"/>
      <use xlink:href="#DejaVuSans-2c" x="670.703125"/>
      <use xlink:href="#DejaVuSans-20" x="702.490234"/>
      <use xlink:href="#DejaVuSans-49" x="734.277344"/>
      <use xlink:href="#DejaVuSans-43" x="763.769531"/>
      <use xlink:href="#DejaVuSans-55" x="833.59375"/>
      <use xlink:href="#DejaVuSans-20" x="906.787109"/>
      <use xlink:href="#DejaVuSans-6c" x="938.574219"/>
      <use xlink:href="#DejaVuSans-4f" x="966.357422"/>
      <use xlink:href="#DejaVuSans-53" x="1045.068359"/>
      <use xlink:href="#DejaVuSans-20" x="1108.544922"/>
      <use xlink:href="#DejaVuSans-3e" x="1140.332031"/>
      <use xlink:href="#DejaVuSans-3d" x="1224.121094"/>
      <use xlink:href="#DejaVuSans-20" x="1307.910156"/>
      <use xlink:href="#DejaVuSans-31" x="1339.697266"/>
     </g>
    </g>
    <g clip-path="url(#pe8003467ff)">
     <!-- Sepsis patients -->
     <g transform="translate(84.724142 368.637937) scale(0.085 -0.085)">
      <use xlink:href="#DejaVuSans-53"/>
      <use xlink:href="#DejaVuSans-65" x="63.476562"/>
      <use xlink:href="#DejaVuSans-70" x="125"/>
      <use xlink:href="#DejaVuSans-73" x="188.476562"/>
      <use xlink:href="#DejaVuSans-69" x="240.576172"/>
      <use xlink:href="#DejaVuSans-73" x="268.359375"/>
      <use xlink:href="#DejaVuSans-20" x="320.458984"/>
      <use xlink:href="#DejaVuSans-70" x="352.246094"/>
      <use xlink:href="#DejaVuSans-61" x="415.722656"/>
      <use xlink:href="#DejaVuSans-74" x="477.001953"/>
      <use xlink:href="#DejaVuSans-69" x="516.210938"/>
      <use xlink:href="#DejaVuSans-65" x="543.994141"/>
      <use xlink:href="#DejaVuSans-6e" x="605.517578"/>
      <use xlink:href="#DejaVuSans-74" x="668.896484"/>
      <use xlink:href="#DejaVuSans-73" x="708.105469"/>
     </g>
    </g>
    <g clip-path="url(#pe8003467ff)">
     <!-- Crystalloids in first 24h -->
     <g transform="translate(67.931329 378.156077) scale(0.085 -0.085)">
      <use xlink:href="#DejaVuSans-43"/>
      <use xlink:href="#DejaVuSans-72" x="69.824219"/>
      <use xlink:href="#DejaVuSans-79" x="110.9375"/>
      <use xlink:href="#DejaVuSans-73" x="170.117188"/>
      <use xlink:href="#DejaVuSans-74" x="222.216797"/>
      <use xlink:href="#DejaVuSans-61" x="261.425781"/>
      <use xlink:href="#DejaVuSans-6c" x="322.705078"/>
      <use xlink:href="#DejaVuSans-6c" x="350.488281"/>
      <use xlink:href="#DejaVuSans-6f" x="378.271484"/>
      <use xlink:href="#DejaVuSans-69" x="439.453125"/>
      <use xlink:href="#DejaVuSans-64" x="467.236328"/>
      <use xlink:href="#DejaVuSans-73" x="530.712891"/>
      <use xlink:href="#DejaVuSans-20" x="582.8125"/>
      <use xlink:href="#DejaVuSans-69" x="614.599609"/>
      <use xlink:href="#DejaVuSans-6e" x="642.382812"/>
      <use xlink:href="#DejaVuSans-20" x="705.761719"/>
      <use xlink:href="#DejaVuSans-66" x="737.548828"/>
      <use xlink:href="#DejaVuSans-69" x="772.753906"/>
      <use xlink:href="#DejaVuSans-72" x="800.537109"/>
      <use xlink:href="#DejaVuSans-73" x="841.650391"/>
      <use xlink:href="#DejaVuSans-74" x="893.75"/>
      <use xlink:href="#DejaVuSans-20" x="932.958984"/>
      <use xlink:href="#DejaVuSans-32" x="964.746094"/>
      <use xlink:href="#DejaVuSans-34" x="1028.369141"/>
      <use xlink:href="#DejaVuSans-68" x="1091.992188"/>
     </g>
    </g>
    <g clip-path="url(#pe8003467ff)">
     <!-- Albumin in first 24h -->
     <g transform="translate(75.207462 387.674218) scale(0.085 -0.085)">
      <defs>
       <path id="DejaVuSans-62" d="M 3116 1747 
Q 3116 2381 2855 2742 
Q 2594 3103 2138 3103 
Q 1681 3103 1420 2742 
Q 1159 2381 1159 1747 
Q 1159 1113 1420 752 
Q 1681 391 2138 391 
Q 2594 391 2855 752 
Q 3116 1113 3116 1747 
z
M 1159 2969 
Q 1341 3281 1617 3432 
Q 1894 3584 2278 3584 
Q 2916 3584 3314 3078 
Q 3713 2572 3713 1747 
Q 3713 922 3314 415 
Q 2916 -91 2278 -91 
Q 1894 -91 1617 61 
Q 1341 213 1159 525 
L 1159 0 
L 581 0 
L 581 4863 
L 1159 4863 
L 1159 2969 
z
" transform="scale(0.015625)"/>
      </defs>
      <use xlink:href="#DejaVuSans-41"/>
      <use xlink:href="#DejaVuSans-6c" x="68.408203"/>
      <use xlink:href="#DejaVuSans-62" x="96.191406"/>
      <use xlink:href="#DejaVuSans-75" x="159.667969"/>
      <use xlink:href="#DejaVuSans-6d" x="223.046875"/>
      <use xlink:href="#DejaVuSans-69" x="320.458984"/>
      <use xlink:href="#DejaVuSans-6e" x="348.242188"/>
      <use xlink:href="#DejaVuSans-20" x="411.621094"/>
      <use xlink:href="#DejaVuSans-69" x="443.408203"/>
      <use xlink:href="#DejaVuSans-6e" x="471.191406"/>
      <use xlink:href="#DejaVuSans-20" x="534.570312"/>
      <use xlink:href="#DejaVuSans-66" x="566.357422"/>
      <use xlink:href="#DejaVuSans-69" x="601.5625"/>
      <use xlink:href="#DejaVuSans-72" x="629.345703"/>
      <use xlink:href="#DejaVuSans-73" x="670.458984"/>
      <use xlink:href="#DejaVuSans-74" x="722.558594"/>
      <use xlink:href="#DejaVuSans-20" x="761.767578"/>
      <use xlink:href="#DejaVuSans-32" x="793.554688"/>
      <use xlink:href="#DejaVuSans-34" x="857.177734"/>
      <use xlink:href="#DejaVuSans-68" x="920.800781"/>
     </g>
    </g>
    <g clip-path="url(#pe8003467ff)">
     <!-- (n = 3559) -->
     <g transform="translate(93.943985 397.192359) scale(0.085 -0.085)">
      <use xlink:href="#DejaVuSans-28"/>
      <use xlink:href="#DejaVuSans-6e" x="39.013672"/>
      <use xlink:href="#DejaVuSans-20" x="102.392578"/>
      <use xlink:href="#DejaVuSans-3d" x="134.179688"/>
      <use xlink:href="#DejaVuSans-20" x="217.96875"/>
      <use xlink:href="#DejaVuSans-33" x="249.755859"/>
      <use xlink:href="#DejaVuSans-35" x="313.378906"/>
      <use xlink:href="#DejaVuSans-35" x="377.001953"/>
      <use xlink:href="#DejaVuSans-39" x="440.625"/>
      <use xlink:href="#DejaVuSans-29" x="504.248047"/>
     </g>
    </g>
   </g>
   <g id="text_9">
    <g clip-path="url(#pe8003467ff)">
     <!-- Treated -->
     <g transform="translate(101.213478 422.161402) scale(0.085 -0.085)">
      <defs>
       <path id="DejaVuSans-54" d="M -19 4666 
L 3928 4666 
L 3928 4134 
L 2272 4134 
L 2272 0 
L 1638 0 
L 1638 4134 
L -19 4134 
L -19 4666 
z
" transform="scale(0.015625)"/>
      </defs>
      <use xlink:href="#DejaVuSans-54"/>
      <use xlink:href="#DejaVuSans-72" x="46.333984"/>
      <use xlink:href="#DejaVuSans-65" x="85.197266"/>
      <use xlink:href="#DejaVuSans-61" x="146.720703"/>
      <use xlink:href="#DejaVuSans-74" x="208"/>
      <use xlink:href="#DejaVuSans-65" x="247.208984"/>
      <use xlink:href="#DejaVuSans-64" x="308.732422"/>
     </g>
    </g>
   </g>
   <g id="text_10">
    <g clip-path="url(#pe8003467ff)">
     <!-- Aged over 18, ICU lOS &gt;= 1 -->
     <g transform="translate(258.554279 359.119796) scale(0.085 -0.085)">
      <use xlink:href="#DejaVuSans-41"/>
      <use xlink:href="#DejaVuSans-67" x="68.408203"/>
      <use xlink:href="#DejaVuSans-65" x="131.884766"/>
      <use xlink:href="#DejaVuSans-64" x="193.408203"/>
      <use xlink:href="#DejaVuSans-20" x="256.884766"/>
      <use xlink:href="#DejaVuSans-6f" x="288.671875"/>
      <use xlink:href="#DejaVuSans-76" x="349.853516"/>
      <use xlink:href="#DejaVuSans-65" x="409.033203"/>
      <use xlink:href="#DejaVuSans-72" x="470.556641"/>
      <use xlink:href="#DejaVuSans-20" x="511.669922"/>
      <use xlink:href="#DejaVuSans-31" x="543.457031"/>
      <use xlink:href="#DejaVuSans-38" x="607.080078"/>
      <use xlink:href="#DejaVuSans-2c" x="670.703125"/>
      <use xlink:href="#DejaVuSans-20" x="702.490234"/>
      <use xlink:href="#DejaVuSans-49" x="734.277344"/>
      <use xlink:href="#DejaVuSans-43" x="763.769531"/>
      <use xlink:href="#DejaVuSans-55" x="833.59375"/>
      <use xlink:href="#DejaVuSans-20" x="906.787109"/>
      <use xlink:href="#DejaVuSans-6c" x="938.574219"/>
      <use xlink:href="#DejaVuSans-4f" x="966.357422"/>
      <use xlink:href="#DejaVuSans-53" x="1045.068359"/>
      <use xlink:href="#DejaVuSans-20" x="1108.544922"/>
      <use xlink:href="#DejaVuSans-3e" x="1140.332031"/>
      <use xlink:href="#DejaVuSans-3d" x="1224.121094"/>
      <use xlink:href="#DejaVuSans-20" x="1307.910156"/>
      <use xlink:href="#DejaVuSans-31" x="1339.697266"/>
     </g>
    </g>
    <g clip-path="url(#pe8003467ff)">
     <!-- Sepsis patients -->
     <g transform="translate(285.88842 368.637937) scale(0.085 -0.085)">
      <use xlink:href="#DejaVuSans-53"/>
      <use xlink:href="#DejaVuSans-65" x="63.476562"/>
      <use xlink:href="#DejaVuSans-70" x="125"/>
      <use xlink:href="#DejaVuSans-73" x="188.476562"/>
      <use xlink:href="#DejaVuSans-69" x="240.576172"/>
      <use xlink:href="#DejaVuSans-73" x="268.359375"/>
      <use xlink:href="#DejaVuSans-20" x="320.458984"/>
      <use xlink:href="#DejaVuSans-70" x="352.246094"/>
      <use xlink:href="#DejaVuSans-61" x="415.722656"/>
      <use xlink:href="#DejaVuSans-74" x="477.001953"/>
      <use xlink:href="#DejaVuSans-69" x="516.210938"/>
      <use xlink:href="#DejaVuSans-65" x="543.994141"/>
      <use xlink:href="#DejaVuSans-6e" x="605.517578"/>
      <use xlink:href="#DejaVuSans-74" x="668.896484"/>
      <use xlink:href="#DejaVuSans-73" x="708.105469"/>
     </g>
    </g>
    <g clip-path="url(#pe8003467ff)">
     <!-- Crystalloids in first 24h -->
     <g transform="translate(269.095608 378.156077) scale(0.085 -0.085)">
      <use xlink:href="#DejaVuSans-43"/>
      <use xlink:href="#DejaVuSans-72" x="69.824219"/>
      <use xlink:href="#DejaVuSans-79" x="110.9375"/>
      <use xlink:href="#DejaVuSans-73" x="170.117188"/>
      <use xlink:href="#DejaVuSans-74" x="222.216797"/>
      <use xlink:href="#DejaVuSans-61" x="261.425781"/>
      <use xlink:href="#DejaVuSans-6c" x="322.705078"/>
      <use xlink:href="#DejaVuSans-6c" x="350.488281"/>
      <use xlink:href="#DejaVuSans-6f" x="378.271484"/>
      <use xlink:href="#DejaVuSans-69" x="439.453125"/>
      <use xlink:href="#DejaVuSans-64" x="467.236328"/>
      <use xlink:href="#DejaVuSans-73" x="530.712891"/>
      <use xlink:href="#DejaVuSans-20" x="582.8125"/>
      <use xlink:href="#DejaVuSans-69" x="614.599609"/>
      <use xlink:href="#DejaVuSans-6e" x="642.382812"/>
      <use xlink:href="#DejaVuSans-20" x="705.761719"/>
      <use xlink:href="#DejaVuSans-66" x="737.548828"/>
      <use xlink:href="#DejaVuSans-69" x="772.753906"/>
      <use xlink:href="#DejaVuSans-72" x="800.537109"/>
      <use xlink:href="#DejaVuSans-73" x="841.650391"/>
      <use xlink:href="#DejaVuSans-74" x="893.75"/>
      <use xlink:href="#DejaVuSans-20" x="932.958984"/>
      <use xlink:href="#DejaVuSans-32" x="964.746094"/>
      <use xlink:href="#DejaVuSans-34" x="1028.369141"/>
      <use xlink:href="#DejaVuSans-68" x="1091.992188"/>
     </g>
    </g>
    <g clip-path="url(#pe8003467ff)">
     <!-- Crystalloids only -->
     <g transform="translate(283.08674 387.674218) scale(0.085 -0.085)">
      <use xlink:href="#DejaVuSans-43"/>
      <use xlink:href="#DejaVuSans-72" x="69.824219"/>
      <use xlink:href="#DejaVuSans-79" x="110.9375"/>
      <use xlink:href="#DejaVuSans-73" x="170.117188"/>
      <use xlink:href="#DejaVuSans-74" x="222.216797"/>
      <use xlink:href="#DejaVuSans-61" x="261.425781"/>
      <use xlink:href="#DejaVuSans-6c" x="322.705078"/>
      <use xlink:href="#DejaVuSans-6c" x="350.488281"/>
      <use xlink:href="#DejaVuSans-6f" x="378.271484"/>
      <use xlink:href="#DejaVuSans-69" x="439.453125"/>
      <use xlink:href="#DejaVuSans-64" x="467.236328"/>
      <use xlink:href="#DejaVuSans-73" x="530.712891"/>
      <use xlink:href="#DejaVuSans-20" x="582.8125"/>
      <use xlink:href="#DejaVuSans-6f" x="614.599609"/>
      <use xlink:href="#DejaVuSans-6e" x="675.78125"/>
      <use xlink:href="#DejaVuSans-6c" x="739.160156"/>
      <use xlink:href="#DejaVuSans-79" x="766.943359"/>
     </g>
    </g>
    <g clip-path="url(#pe8003467ff)">
     <!-- (n = 14862) -->
     <g transform="translate(292.404201 397.192359) scale(0.085 -0.085)">
      <use xlink:href="#DejaVuSans-28"/>
      <use xlink:href="#DejaVuSans-6e" x="39.013672"/>
      <use xlink:href="#DejaVuSans-20" x="102.392578"/>
      <use xlink:href="#DejaVuSans-3d" x="134.179688"/>
      <use xlink:href="#DejaVuSans-20" x="217.96875"/>
      <use xlink:href="#DejaVuSans-31" x="249.755859"/>
      <use xlink:href="#DejaVuSans-34" x="313.378906"/>
      <use xlink:href="#DejaVuSans-38" x="377.001953"/>
      <use xlink:href="#DejaVuSans-36" x="440.625"/>
      <use xlink:href="#DejaVuSans-32" x="504.248047"/>
      <use xlink:href="#DejaVuSans-29" x="567.871094"/>
     </g>
    </g>
   </g>
   <g id="text_11">
    <g clip-path="url(#pe8003467ff)">
     <!-- Control -->
     <g transform="translate(302.836623 422.161402) scale(0.085 -0.085)">
      <use xlink:href="#DejaVuSans-43"/>
      <use xlink:href="#DejaVuSans-6f" x="69.824219"/>
      <use xlink:href="#DejaVuSans-6e" x="131.005859"/>
      <use xlink:href="#DejaVuSans-74" x="194.384766"/>
      <use xlink:href="#DejaVuSans-72" x="233.59375"/>
      <use xlink:href="#DejaVuSans-6f" x="272.457031"/>
      <use xlink:href="#DejaVuSans-6c" x="333.638672"/>
     </g>
    </g>
   </g>
  </g>
 </g>
 <defs>
  <clipPath id="pe8003467ff">
   <rect x="7.2" y="7.2" width="420.846604" height="424.48273"/>
  </clipPath>
 </defs>
</svg>
