<?xml version="1.0" encoding="UTF-8" standalone="no"?>
<svg
   xmlns:dc="http://purl.org/dc/elements/1.1/"
   xmlns:cc="http://creativecommons.org/ns#"
   xmlns:rdf="http://www.w3.org/1999/02/22-rdf-syntax-ns#"
   xmlns:svg="http://www.w3.org/2000/svg"
   xmlns="http://www.w3.org/2000/svg"
   xmlns:sodipodi="http://sodipodi.sourceforge.net/DTD/sodipodi-0.dtd"
   xmlns:inkscape="http://www.inkscape.org/namespaces/inkscape"
   id="Calque_1"
   data-name="Calque 1"
   viewBox="0 0 1110.5445 398.61446"
   version="1.1"
   sodipodi:docname="logo_and_text.svg"
   inkscape:version="1.0.2 (e86c870879, 2021-01-15)"
   width="1110.5446"
   height="398.61447">
  <metadata
     id="metadata414">
    <rdf:RDF>
      <cc:Work
         rdf:about="">
        <dc:format>image/svg+xml</dc:format>
        <dc:type
           rdf:resource="http://purl.org/dc/dcmitype/StillImage" />
        <dc:title />
      </cc:Work>
    </rdf:RDF>
  </metadata>
  <sodipodi:namedview
     pagecolor="#ffffff"
     bordercolor="#666666"
     borderopacity="1"
     objecttolerance="10"
     gridtolerance="10"
     guidetolerance="10"
     inkscape:pageopacity="0"
     inkscape:pageshadow="2"
     inkscape:window-width="1920"
     inkscape:window-height="1016"
     id="namedview412"
     showgrid="false"
     inkscape:zoom="0.95653181"
     inkscape:cx="752.65021"
     inkscape:cy="295.63333"
     inkscape:window-x="0"
     inkscape:window-y="0"
     inkscape:window-maximized="1"
     inkscape:current-layer="Calque_1"
     fit-margin-top="0"
     fit-margin-left="0"
     fit-margin-right="0"
     fit-margin-bottom="0"
     inkscape:document-rotation="0" />
  <defs
     id="defs4">
    <style
       id="style2">.cls-1,.cls-5,.cls-8{fill:none;}.cls-1,.cls-8{stroke:#b3b3b3;}.cls-1,.cls-4,.cls-5,.cls-8,.cls-9{stroke-miterlimit:10;}.cls-2,.cls-3,.cls-4,.cls-6{fill:#b3b3b3;}.cls-3,.cls-4,.cls-9{stroke:#fff;}.cls-5{stroke:#fc854c;stroke-width:6px;}.cls-6,.cls-7{font-size:11.7px;}.cls-6,.cls-7,.cls-9{font-family:Copperplate-Light, Copperplate;font-weight:300;}.cls-7,.cls-9{fill:#02409e;}.cls-8{stroke-width:4px;}.cls-9{font-size:83.01px;}</style>
  </defs>
  <path
     style="fill:#2a2a57;stroke-width:1.21397;fill-opacity:1"
     d="m 475.07104,366.62064 c -11.93554,-1.36023 -29.19718,-7.02436 -38.3483,-12.58338 -8.8349,-5.36691 -16.29716,-13.50403 -20.36154,-22.20295 -2.84685,-6.09308 -3.21665,-8.36286 -3.19917,-19.63609 0.0235,-15.16828 2.08495,-20.81612 11.12548,-30.48118 8.08472,-8.64322 15.69913,-12.26898 27.21738,-12.96014 13.83979,-0.83045 23.58756,3.29864 29.08992,12.3223 3.23582,5.30663 3.17778,17.41255 -0.11443,23.86583 -3.43971,6.74238 -6.76264,8.46535 -21.38507,11.08832 -7.06494,1.26731 -14.37859,3.09708 -16.25257,4.06614 -5.20892,2.69364 -8.47748,7.59807 -8.47748,12.72036 0,9.47702 9.91443,18.20845 27.12104,23.88493 8.54431,2.81877 11.98945,3.27764 25.07952,3.34041 13.50937,0.0648 16.15168,-0.28239 24.07855,-3.16373 28.15369,-10.23362 52.22485,-35.96362 72.89695,-77.92057 6.95414,-14.1144 15.19108,-33.54856 14.45446,-34.10372 -0.19362,-0.14592 -5.76023,-0.91012 -12.37027,-1.69824 -37.38487,-4.45742 -66.05838,-26.72072 -73.68648,-57.21323 -2.30603,-9.21812 -2.04285,-30.26841 0.50086,-40.06089 1.12735,-4.33993 4.54363,-12.96894 7.59173,-19.17557 18.9195,-38.524488 76.41542,-68.101039 138.91966,-71.461864 22.20272,-1.19383 34.31497,1.447779 32.17758,7.017734 -0.62304,1.623611 -3.88376,2.061738 -19.80124,2.660607 -33.49537,1.260206 -59.47713,9.647602 -86.37817,27.884479 -13.10976,8.887434 -31.06765,27.441904 -37.31434,38.553964 -10.07641,17.92463 -14.46242,38.55974 -12.36206,58.16045 2.8939,27.00613 25.71503,45.0781 58.6565,46.44984 l 8.42547,0.35086 4.07147,-9.71173 c 20.10504,-47.95697 53.08176,-98.29458 85.89854,-131.120584 27.01401,-27.021602 52.86079,-40.655677 77.07291,-40.655677 11.53216,0 18.81161,2.849639 26.23008,10.268099 8.22478,8.224787 10.84969,15.663652 10.72699,30.399779 -0.10986,13.189623 -2.44497,21.769363 -9.74702,35.812013 -16.88085,32.46379 -61.62567,69.65893 -111.8476,92.97583 -7.85326,3.64608 -15.53451,7.29864 -17.06946,8.11679 -1.81085,0.96522 -4.69348,5.75027 -8.20936,13.62722 -6.53228,14.63487 -14.25448,28.22276 -23.44263,41.24935 -8.58697,12.17427 -34.26152,38.25833 -46.35226,47.09159 -36.23548,26.47289 -73.43061,36.9363 -114.61564,32.24265 z m 220.0997,-158.38629 c 29.0803,-17.30484 62.95086,-48.43694 78.7623,-72.3943 18.34057,-27.78946 22.83334,-56.799281 10.47679,-67.648485 -5.13113,-4.505179 -8.42988,-5.348213 -17.65437,-4.511766 -26.51942,2.404697 -52.12853,33.45201 -74.81539,90.702771 -5.35056,13.50225 -19.1713,54.65626 -21.29969,63.42404 l -0.80901,3.3327 7.002,-3.07981 c 3.85111,-1.6939 12.10291,-6.11521 18.33737,-9.82515 z M 655.7034,366.8466 c -14.9465,-3.17296 -21.04733,-11.71339 -21.01573,-29.41958 0.0362,-20.25298 7.10806,-40.09951 22.7736,-63.9116 27.86011,-42.3482 62.59179,-66.44806 90.43848,-62.75406 17.95584,2.38193 25.31471,14.45367 20.90194,34.28822 -1.12144,5.04066 -3.07994,12.19043 -4.35223,15.8884 -1.27228,3.69797 -2.31325,7.45748 -2.31325,8.35448 0,1.99011 9.26819,2.18642 20.02989,0.42424 4.00577,-0.65593 8.27056,-0.87923 9.47728,-0.49623 2.90056,0.9206 2.18117,3.95015 -1.58594,6.67877 -4.04416,2.9293 -22.04256,6.42002 -28.52252,5.53185 l -5.13299,-0.70355 -3.42522,6.32709 c -9.70638,17.92968 -24.1927,37.70252 -38.76454,52.91094 -21.20698,22.13343 -40.0634,30.79674 -58.50877,26.88103 z m 46.04186,-35.3486 c 11.76828,-5.92812 22.14903,-17.30683 34.96406,-38.32533 7.6702,-12.58025 8.48349,-14.96909 5.09295,-14.9595 -7.8101,0.0221 -22.52783,-9.50629 -26.47565,-17.14054 -0.99627,-1.9266 -2.27109,-3.5029 -2.83288,-3.5029 -2.8809,0 -16.921,25.63115 -25.18965,45.98543 -7.68479,18.91701 -8.60837,25.85427 -3.94487,29.63054 3.53443,2.86201 10.65092,2.20878 18.38604,-1.6877 z m 49.39836,-64.14965 c 2.57842,-2.57842 5.33931,-10.82619 7.36686,-22.00748 2.2812,-12.58004 -1.72376,-20.56406 -10.30151,-20.53638 -8.52983,0.0276 -22.95515,10.32773 -26.0763,18.61944 -2.92367,7.76702 4.12446,19.03461 14.99447,23.97115 6.42997,2.92011 11.0651,2.90465 14.01648,-0.0467 z m 38.92629,96.73974 c -5.22172,-1.75203 -13.21703,-9.58356 -16.41406,-16.07786 -3.60296,-7.31889 -3.12351,-20.48865 1.17119,-32.17011 7.62592,-20.74229 27.99483,-49.08084 54.6669,-76.05609 20.81408,-21.05067 37.16307,-30.81996 52.21797,-31.20267 4.67379,-0.11885 8.30349,0.88579 15.78156,4.36796 l 9.71174,4.52226 2.12444,-2.5438 c 1.16844,-1.39908 2.12444,-3.29515 2.12444,-4.21348 0,-4.02425 30.2817,-76.2625 44.46112,-106.06384 l 8.19749,-17.228919 14.2543,0.399928 c 12.21908,0.342828 14.74296,0.764954 17.67698,2.956517 1.88247,1.406123 3.60162,3.46671 3.82032,4.579082 0.4589,2.333928 -13.8245,36.075262 -31.49698,74.404622 -20.73318,44.96767 -37.74441,77.27903 -53.89853,102.37564 -8.38056,13.01979 -18.79227,30.76476 -23.13716,39.43326 -7.28609,14.53651 -7.73578,15.88085 -5.78853,17.30472 2.75172,2.0121 5.64699,1.09986 13.73876,-4.32878 6.63717,-4.45277 10.36373,-8.70972 24.62506,-28.12987 7.96278,-10.84321 10.95387,-12.63177 11.60745,-6.94082 1.15321,10.0414 -10.07281,28.17438 -29.50688,47.66136 -21.24882,21.3067 -36.51923,29.92193 -49.56791,27.96516 -9.0671,-1.3597 -12.36652,-4.32643 -16.20739,-14.57321 -1.89037,-5.04318 -3.75907,-9.17534 -4.15265,-9.18257 -0.39359,-0.007 -1.29258,1.21598 -1.99775,2.71826 -6.69727,14.26776 -29.81686,24.78604 -44.01188,20.02325 z m 42.08976,-32.40256 c 5.87238,-3.58066 16.08295,-16.54938 32.54694,-41.33871 24.58969,-37.02398 36.95473,-59.95496 34.65078,-64.25994 -6.48268,-12.113 -33.47031,9.78613 -59.34292,48.15386 -16.23026,24.06862 -24.55061,52.56728 -16.90982,57.9191 3.4613,2.42439 4.38001,2.37625 9.05502,-0.47431 z m 122.71076,32.71846 c -9.6007,-2.89082 -17.69766,-12.01029 -20.3018,-22.86561 -5.1595,-21.50721 15.143,-59.8148 51.4831,-97.14038 21.32427,-21.90253 37.41757,-32.44214 54.19817,-35.49479 l 8.0061,-1.45645 11.3046,5.20743 c 10.7517,4.95268 11.3844,5.09836 12.9348,2.97806 0.8966,-1.22616 1.6302,-2.89094 1.6302,-3.69953 0,-2.66004 7.4416,-4.13562 20.8567,-4.13562 9.9693,0 13.3648,0.40203 13.8393,1.63858 0.8527,2.22213 -5.6483,18.39139 -12.8084,31.85693 -3.2279,6.07042 -12.4152,21.47234 -20.4164,34.2265 -14.4322,23.00561 -28.1785,48.19033 -28.1785,51.62629 0,5.49399 10.5064,1.82178 20.5034,-7.16641 3.2905,-2.95847 10.8125,-11.9255 16.7155,-19.92676 5.9031,-8.00125 11.2791,-14.37214 11.9468,-14.15752 2.0266,0.65144 2.0994,7.94654 0.1367,13.70674 -3.2038,9.40281 -12.9036,22.40707 -28.0181,37.56329 -21.5512,21.61077 -35.8482,29.77688 -48.9809,27.97684 -9.5251,-1.30556 -12.531,-3.95412 -16.5589,-14.59047 l -3.58775,-9.47386 -2.19313,2.85951 c -10.23455,13.34431 -15.016,16.98565 -26.09208,19.8706 -7.598,1.97903 -11.37275,2.11619 -16.41941,0.59663 z m 40.43057,-33.1067 c 6.4417,-4.34107 17.2905,-17.99494 32.0551,-40.34348 22.2997,-33.75404 36.9572,-60.29466 35.4573,-64.20328 -1.4207,-3.70232 -6.8336,-4.74001 -12.8132,-2.45638 -6.1729,2.35743 -20.9727,15.90613 -31.707,29.0267 -26.00203,31.78198 -41.73447,69.35353 -32.78716,78.30084 3.11105,3.11104 4.7791,3.05579 9.79496,-0.3244 z"
     id="path879" />
  <text
     class="cls-6"
     transform="rotate(4.5739213)"
     id="text17"
     x="212.99652"
     y="379.47031"
     style="stroke-width:1.00319" />
  <text
     class="cls-6"
     transform="rotate(-4.84)"
     id="text27"
     x="179.87227"
     y="412.05301" />
  <text
     class="cls-6"
     transform="rotate(-7.67)"
     id="text31"
     x="169.05141"
     y="420.76456" />
  <text
     class="cls-6"
     transform="rotate(-17.06)"
     id="text41"
     x="129.95255"
     y="445.61993" />
  <text
     class="cls-6"
     transform="rotate(-26.565051)"
     id="text51"
     x="86.382545"
     y="463.92673"
     style="stroke-width:1.00623" />
  <text
     class="cls-6"
     transform="rotate(-35.604534)"
     id="text61"
     x="44.245197"
     y="474.52679"
     style="stroke-width:0.996243" />
  <text
     class="cls-6"
     transform="rotate(-45.06)"
     id="text71"
     x="-2.5160401"
     y="478.2171" />
  <text
     class="cls-6"
     transform="rotate(-54.395466)"
     id="text81"
     x="-48.254761"
     y="474.37219"
     style="stroke-width:0.996243" />
  <text
     class="cls-6"
     transform="rotate(-63.67)"
     id="text91"
     x="-92.286461"
     y="463.28372" />
  <text
     class="cls-6"
     transform="rotate(-73.07)"
     id="text101"
     x="-134.89691"
     y="444.90109" />
  <text
     class="cls-6"
     transform="rotate(-82.519114)"
     id="text111"
     x="-174.28285"
     y="419.66006"
     style="stroke-width:0.998499" />
  <text
     class="cls-6"
     transform="rotate(-91.68)"
     id="text121"
     x="-207.08252"
     y="389.4035" />
  <text
     class="cls-6"
     transform="rotate(-100.97)"
     id="text131"
     x="-235.44775"
     y="353.75693" />
  <text
     class="cls-6"
     transform="rotate(-110.42233)"
     id="text141"
     x="-258.50998"
     y="313.22061"
     style="stroke-width:1.00305" />
  <text
     class="cls-6"
     transform="rotate(-119.75)"
     id="text151"
     x="-274.04907"
     y="270.0874" />
  <text
     class="cls-6"
     transform="rotate(-129.05)"
     id="text161"
     x="-282.32211"
     y="225.11664" />
  <text
     class="cls-6"
     transform="rotate(-138.65222)"
     id="text171"
     x="-284.11444"
     y="177.91965"
     style="stroke-width:0.99905" />
  <text
     class="cls-6"
     transform="rotate(-147.63)"
     id="text181"
     x="-276.60272"
     y="134.28899" />
  <text
     class="cls-6"
     transform="rotate(-156.99)"
     id="text191"
     x="-262.93454"
     y="90.415466" />
  <text
     class="cls-6"
     transform="rotate(-166.38)"
     id="text201"
     x="-242.37473"
     y="49.211376" />
  <text
     class="cls-6"
     transform="rotate(-175.73)"
     id="text211"
     x="-215.32634"
     y="12.068725" />
  <text
     class="cls-6"
     transform="rotate(175.07)"
     id="text221"
     x="-182.70351"
     y="-19.661261" />
  <text
     class="cls-6"
     transform="rotate(165.72)"
     id="text231"
     x="-145.26357"
     y="-46.185089" />
  <text
     class="cls-6"
     transform="rotate(156.50143)"
     id="text241"
     x="-104.16617"
     y="-66.059303"
     style="stroke-width:1.00319" />
  <text
     class="cls-6"
     transform="rotate(146.97)"
     id="text251"
     x="-60.000187"
     y="-79.500473" />
  <text
     class="cls-6"
     transform="rotate(137.68)"
     id="text261"
     x="-14.581704"
     y="-85.27861" />
  <text
     class="cls-6"
     transform="rotate(128.4)"
     id="text271"
     x="31.18129"
     y="-83.636566" />
  <text
     class="cls-6"
     transform="rotate(119.38901)"
     id="text281"
     x="75.699585"
     y="-75.008842"
     style="stroke-width:0.998499" />
  <text
     class="cls-6"
     transform="rotate(109.71)"
     id="text291"
     x="119.04533"
     y="-58.31287" />
  <text
     class="cls-6"
     transform="rotate(100.31)"
     id="text301"
     x="158.77602"
     y="-35.171902" />
  <text
     class="cls-6"
     transform="rotate(91.03)"
     id="text311"
     x="194.16629"
     y="-6.2485681" />
  <text
     class="cls-6"
     transform="rotate(81.79)"
     id="text321"
     x="224.46603"
     y="27.882652" />
  <text
     class="cls-6"
     transform="rotate(72.474432)"
     id="text331"
     x="248.79428"
     y="66.71946"
     style="stroke-width:0.996243" />
  <text
     class="cls-6"
     transform="rotate(63.178019)"
     id="text341"
     x="266.56"
     y="108.85091"
     style="stroke-width:0.997296" />
  <text
     class="cls-6"
     transform="rotate(53.69)"
     id="text351"
     x="276.77805"
     y="154.18726" />
  <text
     class="cls-6"
     transform="rotate(44.41)"
     id="text361"
     x="280.07639"
     y="199.66829" />
  <text
     class="cls-6"
     transform="rotate(35.13)"
     id="text371"
     x="276.02362"
     y="245.09915" />
  <text
     class="cls-6"
     transform="rotate(25.79)"
     id="text381"
     x="264.40524"
     y="289.54123" />
  <text
     class="cls-6"
     transform="rotate(16.39)"
     id="text391"
     x="245.37671"
     y="331.73911" />
  <circle
     class="cls-1"
     cx="199.30724"
     cy="199.30724"
     r="169.18532"
     id="circle6"
     style="stroke:#4d4d4d;stroke-width:0.903382" />
  <path
     id="path2-3"
     class="cls-2"
     d="m 227.91734,72.038831 a 28.582996,28.582996 0 1 0 -28.57396,28.582999 28.573962,28.573962 0 0 0 28.57396,-28.582999 z m -35.23189,43.199709 c -17.66111,-10.84058 -46.27121,-13.7856 -60.66208,-14.60768 a 8.2388407,8.2388407 0 0 0 -8.8712,8.0672 v 66.32628 a 8.2027055,8.2027055 0 0 0 7.88652,8.05817 c 12.99063,0.67753 39.28807,3.17086 57.46411,12.33115 a 4.1465218,4.1465218 0 0 0 6.09782,-3.53222 v -73.23715 a 3.9568117,3.9568117 0 0 0 -1.93324,-3.40575 z m 74.01406,-14.60768 c -14.39087,0.82208 -43.01,3.7942 -60.66208,14.60768 a 4.0290822,4.0290822 0 0 0 -1.91517,3.45995 v 73.17392 a 4.1555556,4.1555556 0 0 0 6.1159,3.54125 c 18.17604,-9.15125 44.45541,-11.64458 57.44604,-12.32212 a 8.2027055,8.2027055 0 0 0 7.88652,-8.05817 v -66.33531 a 8.2388407,8.2388407 0 0 0 -8.88928,-8.0672 z"
     style="fill:#ff7f2a;stroke-width:0.903382" />
  <g
     id="g1623"
     transform="translate(-15.42276,-15.42276)"
     style="fill:#ff7f2a">
    <path
       id="path887"
       class="cls-2"
       d="m 140.46696,218.67271 h -2.28556 a 42.657682,42.657682 0 0 1 -37.77039,0 h -2.294587 a 31.762899,31.762899 0 0 0 -31.753865,31.78096 v 7.94073 a 13.243575,13.243575 0 0 0 13.234541,13.23454 h 79.398211 a 13.243575,13.243575 0 0 0 13.23454,-13.23454 v -7.94073 a 31.771933,31.771933 0 0 0 -31.76289,-31.78096 z"
       style="fill:#ff7f2a;stroke-width:0.903382" />
    <path
       id="path885"
       class="cls-3"
       d="m 119.29169,216.12517 a 37.119952,37.119952 0 1 0 -37.11092,-37.11995 37.101885,37.101885 0 0 0 37.11092,37.11995 z"
       style="fill:#ff7f2a;stroke-width:6;stroke-miterlimit:4;stroke-dasharray:none" />
  </g>
  <path
     id="path2-9"
     class="cls-4"
     d="m 303.27692,218.23677 -11.61658,23.23316 a 3.7363865,3.7363865 0 0 1 -6.7573,-0.13911 l -13.25622,-29.53335 -7.01566,16.76405 h -22.05064 l 42.67033,43.60442 a 4.1835605,4.1835605 0 0 0 6.01201,0 l 42.72995,-43.60442 h -25.57836 z m 35.89317,-39.7488 -0.56642,-0.58629 a 30.636383,30.636383 0 0 0 -43.81311,0 l -6.5188,6.68774 -6.52874,-6.65793 a 30.586696,30.586696 0 0 0 -43.81311,0 l -0.55648,0.55648 a 32.097151,32.097151 0 0 0 -1.7092,42.5809 h 23.93871 l 8.39693,-20.15264 a 3.7463238,3.7463238 0 0 1 6.86661,-0.0993 l 13.61396,30.22896 11.45759,-22.85556 a 3.7363865,3.7363865 0 0 1 6.68773,0 l 6.44924,12.91836 h 27.82416 a 32.117024,32.117025 0 0 0 -1.67939,-42.60077 z"
     style="fill:#ffffff;stroke:#ffffff;stroke-width:0.99372;stroke-miterlimit:10" />
  <path
     id="path2"
     class="cls-4"
     d="m 299.91444,218.49352 -10.56053,21.12106 a 3.396715,3.396715 0 0 1 -6.143,-0.12647 l -12.05111,-26.8485 -6.37787,15.24005 h -20.04604 l 38.79121,39.64038 a 3.8032368,3.8032368 0 0 0 5.46546,0 l 38.84541,-39.64038 h -23.25305 z m 32.63015,-36.13527 -0.51493,-0.53299 a 27.851257,27.851257 0 0 0 -39.8301,0 l -5.92618,6.07976 -5.93522,-6.05266 a 27.806087,27.806087 0 0 0 -39.8301,0 l -0.50589,0.50589 a 29.179228,29.179228 0 0 0 -1.55382,38.70991 h 21.76247 l 7.63357,-18.32058 a 3.4057489,3.4057489 0 0 1 6.24237,-0.0903 l 12.37633,27.48087 10.41599,-20.77778 a 3.396715,3.396715 0 0 1 6.07976,0 l 5.86294,11.74396 h 25.29469 a 29.197295,29.197295 0 0 0 -1.52672,-38.72797 z"
     style="fill:#ff7f2a;stroke-width:0.903382" />
  <circle
     class="cls-5"
     cx="199.30724"
     cy="199.30724"
     r="189.98209"
     id="circle13"
     style="stroke:#4d4d4d;stroke-width:18.6503;stroke-miterlimit:10;stroke-dasharray:none" />
  <path
     class="cls-8"
     d="m 227.17656,283.8684 -15.31231,49.43304 a 14.210194,14.210194 0 0 1 -26.0716,0 l -14.9329,-49.55951 c -4.3543,-14.45411 2.44817,-30.30846 16.35121,-36.23464 a 30.353624,30.353624 0 0 1 23.75894,0 c 13.92111,5.93522 20.69647,21.8799 16.20666,36.36111 z"
     id="path401"
     style="stroke:#4d4d4d;stroke-width:10;stroke-miterlimit:10;stroke-dasharray:none" />
</svg>
