<?xml version="1.0" encoding="UTF-8" standalone="no"?>
<!-- Created with Inkscape (http://www.inkscape.org/) -->

<svg
   width="1203.3574"
   height="234.20052"
   id="svg3356"
   version="1.1"
   inkscape:version="1.1.2 (0a00cf5339, 2022-02-04)"
   sodipodi:docname="logo-light.svg"
   xmlns:inkscape="http://www.inkscape.org/namespaces/inkscape"
   xmlns:sodipodi="http://sodipodi.sourceforge.net/DTD/sodipodi-0.dtd"
   xmlns="http://www.w3.org/2000/svg"
   xmlns:svg="http://www.w3.org/2000/svg"
   xmlns:rdf="http://www.w3.org/1999/02/22-rdf-syntax-ns#"
   xmlns:cc="http://creativecommons.org/ns#"
   xmlns:dc="http://purl.org/dc/elements/1.1/">
  <defs
     id="defs3358">
    <rect
       x="650.09393"
       y="37.637016"
       width="953.83117"
       height="426.17979"
       id="rect11843" />
    <rect
       x="684.30939"
       y="38.777531"
       width="370.6676"
       height="189.32561"
       id="rect2671" />
    <clipPath
       clipPathUnits="userSpaceOnUse"
       id="clipPath3093">
      <path
         inkscape:connector-curvature="0"
         d="m -1.55,596.6021 h 488.799 v 117.059 H -1.55 Z"
         id="path3095" />
    </clipPath>
    <clipPath
       clipPathUnits="userSpaceOnUse"
       id="clipPath3103">
      <path
         inkscape:connector-curvature="0"
         d="M 439.827,22.82703 H 921.71704 V 731.48804 H 439.827 Z"
         id="path3105" />
    </clipPath>
    <clipPath
       clipPathUnits="userSpaceOnUse"
       id="clipPath3113">
      <path
         inkscape:connector-curvature="0"
         d="M 0,2386.4082 H 1928 V 2835 H 0 Z"
         id="path3115" />
    </clipPath>
    <clipPath
       clipPathUnits="userSpaceOnUse"
       id="clipPath3123">
      <path
         inkscape:connector-curvature="0"
         d="M -1.27762,-12.27569 H 2.27484 V 1.5722 h -3.55246 z"
         id="path3125" />
    </clipPath>
    <clipPath
       clipPathUnits="userSpaceOnUse"
       id="clipPath3133">
      <path
         inkscape:connector-curvature="0"
         d="M 0,2386.4082 H 1928 V 2835 H 0 Z"
         id="path3135" />
    </clipPath>
    <clipPath
       clipPathUnits="userSpaceOnUse"
       id="clipPath3141">
      <path
         inkscape:connector-curvature="0"
         d="m 693.236,2717.5146 v -204.6984 h 542.5976 v 204.6984"
         id="path3143" />
    </clipPath>
  </defs>
  <sodipodi:namedview
     inkscape:document-units="mm"
     pagecolor="#ffffff"
     bordercolor="#666666"
     borderopacity="1.0"
     inkscape:pageopacity="0.0"
     inkscape:pageshadow="2"
     inkscape:zoom="0.87679638"
     inkscape:cx="621.58103"
     inkscape:cy="550.2988"
     inkscape:current-layer="g3097"
     id="namedview3360"
     showgrid="true"
     units="cm"
     fit-margin-top="0"
     fit-margin-left="0"
     fit-margin-right="0"
     fit-margin-bottom="0"
     inkscape:window-width="2560"
     inkscape:window-height="1363"
     inkscape:window-x="0"
     inkscape:window-y="0"
     inkscape:window-maximized="1"
     inkscape:pagecheckerboard="0"
     inkscape:snap-grids="true">
    <inkscape:grid
       type="xygrid"
       id="grid35638" />
  </sodipodi:namedview>
  <metadata
     id="metadata3362">
    <rdf:RDF>
      <cc:Work
         rdf:about="">
        <dc:format>image/svg+xml</dc:format>
        <dc:type
           rdf:resource="http://purl.org/dc/dcmitype/StillImage" />
      </cc:Work>
    </rdf:RDF>
  </metadata>
  <g
     inkscape:label="Layer 1"
     inkscape:groupmode="layer"
     id="layer1"
     transform="translate(-678.57007,-375.71211)">
    <g
       transform="matrix(4.5765307,0,0,-4.5765307,-114.60496,3484.8866)"
       id="g3089">
      <g
         id="g3091"
         clip-path="url(#clipPath3093)">
        <g
           id="g3097"
           transform="matrix(1,0,0,-1,-439.827,731.488)">
          <g
             id="g3099">
            <g
               id="g3101"
               clip-path="url(#clipPath3103)">
              <g
                 id="g3107"
                 transform="matrix(0.25,0,0,-0.25,439.827,731.488)">
                <g
                   id="g3109">
                  <g
                     id="g3111"
                     clip-path="url(#clipPath3113)">
                    <g
                       id="g3117"
                       transform="matrix(542.5976,0,0,204.6985,693.236,2512.8162)">
                      <g
                         id="g3119">
                        <g
                           id="g3121"
                           clip-path="url(#clipPath3123)">
                          <g
                             id="g3127"
                             transform="matrix(0.001843,0,0,0.0048852,-1.2776,-12.2757)">
                            <g
                               id="g3129">
                              <g
                                 id="g3131"
                                 clip-path="url(#clipPath3133)">
                                <g
                                   id="g3137">
                                <g
                                   id="g3139"
                                   clip-path="url(#clipPath3141)">
                                <path
                                   inkscape:connector-curvature="0"
                                   d="m 711.4684,2528.7532 c 0,3.084 -0.1439,6.2055 -0.2893,9.2944 0.6139,-0.1062 1.1875,-0.1809 1.7617,-0.1809 0.5744,0 1.148,0.075 1.7581,0.1809 -0.144,-3.0889 -0.288,-6.2104 -0.288,-9.2944 v -6.1761 c 0,-3.0856 0.144,-6.2089 0.288,-9.2961 -0.6101,0.1108 -1.1837,0.1809 -1.7581,0.1809 -0.5742,0 -1.1478,-0.07 -1.7617,-0.1809 0.1454,3.0872 0.2893,6.2105 0.2893,9.2961 v 3.2308 c -2.5106,0.036 -4.9899,0.073 -7.5006,0.073 -2.5129,0 -4.9892,-0.037 -7.5029,-0.073 v -3.2308 c 0,-3.0856 0.1439,-6.2089 0.2887,-9.2961 -0.6109,0.1108 -1.186,0.1809 -1.7581,0.1809 -0.5758,0 -1.1486,-0.07 -1.7595,-0.1809 0.1432,3.0872 0.2879,6.2105 0.2879,9.2961 v 6.1761 c 0,3.084 -0.1447,6.2055 -0.2879,9.2944 0.6109,-0.1062 1.1837,-0.1809 1.7595,-0.1809 0.5721,0 1.1472,0.075 1.7581,0.1809 -0.1448,-3.0889 -0.2887,-6.2104 -0.2887,-9.2944 v -1.2591 c 2.5137,-0.036 4.99,-0.1076 7.5029,-0.1076 2.5107,0 4.99,0.072 7.5006,0.1076 v 1.2591"
                                   style="fill:#1b458f;fill-opacity:1;fill-rule:nonzero;stroke:none"
                                   id="path3145" />
                                <path
                                   inkscape:connector-curvature="0"
                                   d="m 732.8582,2533.667 -3.9114,-9.115 c 1.2554,0 2.6204,-0.073 3.8773,-0.073 1.3275,0 2.6918,0.037 4.0203,0.073 z m 1.1838,4.8455 c 3.5192,-8.3274 8.9007,-21.3892 10.8027,-25.2315 -0.6437,0.1108 -1.2546,0.1809 -1.902,0.1809 -0.6452,0 -1.2537,-0.07 -1.9013,-0.1809 -0.681,2.4805 -2.4055,6.4255 -3.6966,9.6221 -1.5433,0.034 -3.1237,0.07 -4.7022,0.07 -1.4715,0 -2.9065,-0.036 -4.3767,-0.07 -1.5074,-3.7002 -2.8695,-7.3584 -3.4833,-9.6221 -0.4663,0.1108 -0.8951,0.1809 -1.327,0.1809 -0.4295,0 -0.8608,-0.07 -1.3292,-0.1809 3.8405,8.3975 7.5738,16.759 11.2338,25.2315 h 0.6818"
                                   style="fill:#1b458f;fill-opacity:1;fill-rule:nonzero;stroke:none"
                                   id="path3147" />
                                <path
                                   inkscape:connector-curvature="0"
                                   d="m 770.2457,2538.0476 c 0.4655,-0.1062 0.9689,-0.1809 1.4709,-0.1809 0.3618,0 0.7541,0.075 1.0778,0.1809 -0.2872,-3.3401 -0.575,-9.6533 -0.6466,-14.8918 -0.0694,-6.3584 -3.7668,-10.3396 -10.2285,-10.3396 -7.1045,0 -10.2634,3.301 -10.2634,10.2663 0,2.2246 0.1791,3.875 0.1791,5.6707 0,3.9482 -0.144,7.2102 -0.2156,9.2944 0.5721,-0.1062 1.2926,-0.1809 1.8671,-0.1809 0.5004,0 1.0754,0.075 1.5417,0.1809 -0.2134,-2.1201 -0.4296,-6.9997 -0.4296,-12.3115 0,-4.8814 0,-11.2319 8.0025,-11.2319 7.8601,0 7.8601,7.3552 7.8601,11.8762 0,6.8186 0,10.2663 -0.2155,11.6672"
                                   style="fill:#1b458f;fill-opacity:1;fill-rule:nonzero;stroke:none"
                                   id="path3149" />
                                <path
                                   inkscape:connector-curvature="0"
                                   d="m 788.2628,2528.7532 c 0,2.4741 -0.0367,4.9514 -0.1068,7.4255 -2.4771,0 -5.6724,-0.1435 -7.6797,-0.3948 0.1051,0.3604 0.1775,0.7537 0.1775,1.1514 0,0.3589 -0.0724,0.7161 -0.1775,1.1123 3.085,-0.1062 6.1715,-0.1809 9.258,-0.1809 3.0864,0 6.1707,0.075 9.2601,0.1809 -0.1088,-0.3962 -0.1804,-0.7534 -0.1804,-1.1497 0,-0.3603 0.0716,-0.7536 0.1804,-1.114 -2.0108,0.2513 -5.2039,0.3948 -7.6818,0.3948 -0.0701,-2.4741 -0.1082,-4.9514 -0.1082,-7.4255 v -6.1761 c 0,-3.0856 0.1448,-6.2089 0.2888,-9.2961 -0.6109,0.1108 -1.1853,0.1809 -1.7589,0.1809 -0.5744,0 -1.1471,-0.07 -1.7588,-0.1809 0.1433,3.0872 0.2873,6.2105 0.2873,9.2961 v 6.1761"
                                   style="fill:#1b458f;fill-opacity:1;fill-rule:nonzero;stroke:none"
                                   id="path3151" />
                                <path
                                   inkscape:connector-curvature="0"
                                   d="m 807.0824,2528.7874 c 0,3.0825 -0.1424,6.2072 -0.2849,9.2602 2.1527,-0.1062 4.2702,-0.1809 6.4245,-0.1809 2.1532,0 4.2694,0.075 6.3877,0.1809 -0.0693,-0.3589 -0.1081,-0.7192 -0.1081,-1.0764 0,-0.3604 0.0388,-0.7175 0.1081,-1.0779 -3.0134,0.2136 -4.7738,0.468 -9.4393,0.468 -0.0365,-1.5461 -0.1424,-2.8003 -0.1424,-4.5583 0,-1.8675 0.0351,-3.8423 0.0351,-4.7378 4.2343,0 6.6018,0.1794 8.7217,0.3572 -0.0717,-0.3572 -0.1075,-0.7535 -0.1075,-1.1123 0,-0.3572 0.0358,-0.7176 0.1075,-1.0765 -2.4756,0.2513 -6.9981,0.3245 -8.7217,0.3245 -0.0351,-0.8625 -0.0351,-1.7595 -0.0351,-5.2056 0,-2.7268 0.0351,-4.4851 0.0716,-5.3806 3.1924,0 7.4298,0.033 9.6906,0.4651 -0.0732,-0.3262 -0.1081,-0.791 -0.1081,-1.1155 0,-0.3213 0.0349,-0.7146 0.1081,-1.0405 -2.1199,0.1108 -4.2726,0.1809 -6.4593,0.1809 -2.1892,0 -4.3464,-0.07 -6.5334,-0.1809 0.1425,3.1231 0.2849,6.2463 0.2849,9.332 v 6.1744"
                                   style="fill:#1b458f;fill-opacity:1;fill-rule:nonzero;stroke:none"
                                   id="path3153" />
                                <path
                                   inkscape:connector-curvature="0"
                                   d="m 849.8755,2533.667 -3.9111,-9.115 c 1.2553,0 2.6181,-0.073 3.8768,-0.073 1.3244,0 2.691,0.037 4.0155,0.073 z m 1.1857,4.8455 c 3.5178,-8.3274 8.8997,-21.3892 10.8014,-25.2315 -0.6459,0.1108 -1.2558,0.1809 -1.9017,0.1809 -0.6458,0 -1.2558,-0.07 -1.9016,-0.1809 -0.6833,2.4805 -2.4055,6.4255 -3.6972,9.6221 -1.5413,0.034 -3.1231,0.07 -4.7018,0.07 -1.4702,0 -2.9076,-0.036 -4.3761,-0.07 -1.5091,-3.7002 -2.8725,-7.3584 -3.4834,-9.6221 -0.4669,0.1108 -0.898,0.1809 -1.3284,0.1809 -0.4311,0 -0.8615,-0.07 -1.3284,-0.1809 3.8406,8.3975 7.573,16.759 11.2323,25.2315 h 0.6849"
                                   style="fill:#1b458f;fill-opacity:1;fill-rule:nonzero;stroke:none"
                                   id="path3155" />
                                <path
                                   inkscape:connector-curvature="0"
                                   d="m 887.2641,2538.0476 c 0.4664,-0.1062 0.9656,-0.1809 1.4695,-0.1809 0.3619,0 0.755,0.075 1.0795,0.1809 -0.2886,-3.3401 -0.5787,-9.6533 -0.6474,-14.8918 -0.0749,-6.3584 -3.7674,-10.3396 -10.2305,-10.3396 -7.1073,0 -10.2632,3.301 -10.2632,10.2663 0,2.2246 0.181,3.875 0.181,5.6707 0,3.9482 -0.1436,7.2102 -0.2169,9.2944 0.5725,-0.1062 1.2901,-0.1809 1.8642,-0.1809 0.5039,0 1.0779,0.075 1.5444,0.1809 -0.2168,-2.1201 -0.4306,-6.9997 -0.4306,-12.3115 0,-4.8814 0,-11.2319 8.0044,-11.2319 7.8578,0 7.8578,7.3552 7.8578,11.8762 0,6.8186 0,10.2663 -0.2122,11.6672"
                                   style="fill:#1b458f;fill-opacity:1;fill-rule:nonzero;stroke:none"
                                   id="path3157" />
                                <path
                                   inkscape:connector-curvature="0"
                                   d="m 905.2789,2528.7532 c 0,2.4741 -0.0343,4.9514 -0.106,7.4255 -2.4773,0 -5.6722,-0.1435 -7.6799,-0.3948 0.1061,0.3604 0.1763,0.7537 0.1763,1.1514 0,0.3589 -0.0702,0.7161 -0.1763,1.1123 3.0857,-0.1062 6.173,-0.1809 9.2586,-0.1809 3.0857,0 6.1729,0.075 9.2586,0.1809 -0.1077,-0.3962 -0.181,-0.7534 -0.181,-1.1497 0,-0.3603 0.0733,-0.7536 0.181,-1.114 -2.0078,0.2513 -5.2042,0.3948 -7.6815,0.3948 -0.0717,-2.4741 -0.1045,-4.9514 -0.1045,-7.4255 v -6.1761 c 0,-3.0856 0.142,-6.2089 0.2855,-9.2961 -0.6115,0.1108 -1.184,0.1809 -1.7581,0.1809 -0.5756,0 -1.1528,-0.07 -1.7581,-0.1809 0.1435,3.0872 0.2854,6.2105 0.2854,9.2961 v 6.1761"
                                   style="fill:#1b458f;fill-opacity:1;fill-rule:nonzero;stroke:none"
                                   id="path3159" />
                                <path
                                   inkscape:connector-curvature="0"
                                   d="m 934.7146,2537.1848 c -5.5988,0 -9.9076,-3.552 -9.9076,-11.5205 0,-7.967 4.3088,-11.5205 9.9076,-11.5205 5.6347,0 9.9387,3.5535 9.9387,11.5205 0,7.9685 -4.304,11.5205 -9.9387,11.5205 z m 0,1.3277 c 7.9294,0 13.4597,-4.6988 13.4597,-12.8482 0,-8.1448 -5.5303,-12.8481 -13.4597,-12.8481 -7.8983,0 -13.4222,4.7033 -13.4222,12.8481 0,8.1494 5.5239,12.8482 13.4222,12.8482"
                                   style="fill:#1b458f;fill-opacity:1;fill-rule:nonzero;stroke:none"
                                   id="path3161" />
                                <path
                                   inkscape:connector-curvature="0"
                                   d="m 959.8805,2526.7048 c 0.6428,-0.1403 1.4695,-0.1779 2.404,-0.1779 2.9421,0 6.85,1.2185 6.85,5.4897 0,3.7673 -3.1154,4.7002 -5.5583,4.7002 -1.6537,0 -2.7254,-0.106 -3.482,-0.1792 -0.1076,-2.6194 -0.2137,-5.2058 -0.2137,-7.7844 z m -2.9515,2.0484 c 0,3.084 -0.142,6.2055 -0.2855,9.2944 1.3635,-0.1062 2.73,-0.1809 4.095,-0.1809 1.365,0 2.7331,0.1809 4.0935,0.1809 4.0575,0 7.4661,-1.4009 7.4661,-5.6738 0,-4.6284 -4.6301,-6.4927 -7.3569,-6.8562 1.755,-2.1839 7.7516,-9.9029 9.8327,-12.2366 -0.7208,0.1108 -1.4337,0.1809 -2.156,0.1809 -0.6786,0 -1.4024,-0.07 -2.081,-0.1809 -1.4337,2.1919 -6.2072,8.7937 -9.2945,11.9185 h -1.3619 v -2.6224 c 0,-3.0856 0.142,-6.2089 0.2823,-9.2961 -0.613,0.1108 -1.1855,0.1809 -1.7596,0.1809 -0.5756,0 -1.1497,-0.07 -1.7597,-0.1809 0.1435,3.0872 0.2855,6.2105 0.2855,9.2961 v 6.1761"
                                   style="fill:#1b458f;fill-opacity:1;fill-rule:nonzero;stroke:none"
                                   id="path3163" />
                                <path
                                   inkscape:connector-curvature="0"
                                   d="m 982.5879,2528.7532 c 0,3.084 -0.1467,6.2055 -0.2855,9.2944 0.6053,-0.1062 1.1809,-0.1809 1.7534,-0.1809 0.5741,0 1.1467,0.075 1.7644,0.1809 -0.1498,-3.0889 -0.2886,-6.2104 -0.2886,-9.2944 v -6.1761 c 0,-3.0856 0.1388,-6.2089 0.2886,-9.2961 -0.6177,0.1108 -1.1903,0.1809 -1.7644,0.1809 -0.5725,0 -1.1481,-0.07 -1.7534,-0.1809 0.1388,3.0872 0.2855,6.2105 0.2855,9.2961 v 6.1761"
                                   style="fill:#1b458f;fill-opacity:1;fill-rule:nonzero;stroke:none"
                                   id="path3165" />
                                <path
                                   inkscape:connector-curvature="0"
                                   d="m 1000.8788,2528.7532 c 0,2.4741 -0.04,4.9514 -0.1076,7.4255 -2.4757,0 -5.6721,-0.1435 -7.6876,-0.3948 0.1138,0.3604 0.1872,0.7537 0.1872,1.1514 0,0.3589 -0.0734,0.7161 -0.1872,1.1123 3.0888,-0.1062 6.1729,-0.1809 9.2617,-0.1809 3.0904,0 6.1729,0.075 9.2617,0.1809 -0.103,-0.3962 -0.1779,-0.7534 -0.1779,-1.1497 0,-0.3603 0.075,-0.7536 0.1779,-1.114 -2.014,0.2513 -5.2042,0.3948 -7.6799,0.3948 -0.072,-2.4741 -0.1139,-4.9514 -0.1139,-7.4255 v -6.1761 c 0,-3.0856 0.1482,-6.2089 0.2948,-9.2961 -0.613,0.1108 -1.1886,0.1809 -1.7627,0.1809 -0.5725,0 -1.1466,-0.07 -1.7535,-0.1809 0.1404,3.0872 0.287,6.2105 0.287,9.2961 v 6.1761"
                                   style="fill:#1b458f;fill-opacity:1;fill-rule:nonzero;stroke:none"
                                   id="path3167" />
                                <path
                                   inkscape:connector-curvature="0"
                                   d="m 1028.0322,2545.0442 c 0.5008,0.5039 1.0733,0.8611 1.6147,0.8611 0.4664,0 1.1809,-0.3916 1.1809,-1.145 0,-0.8658 -0.7145,-1.3306 -1.2948,-1.691 l -5.2729,-3.3728 h -1.5069 z m -8.8717,-16.2568 c 0,3.0825 -0.1388,6.2072 -0.2855,9.2602 2.1559,-0.1062 4.2697,-0.1809 6.4241,-0.1809 2.1574,0 4.2744,0.075 6.3976,0.1809 -0.076,-0.3589 -0.117,-0.7192 -0.117,-1.0764 0,-0.3604 0.041,-0.7175 0.117,-1.0779 -3.017,0.2136 -4.7784,0.468 -9.4458,0.468 -0.039,-1.5461 -0.1467,-2.8003 -0.1467,-4.5583 0,-1.8675 0.042,-3.8423 0.042,-4.7378 4.2291,0 6.6049,0.1794 8.7157,0.3572 -0.069,-0.3572 -0.1015,-0.7535 -0.1015,-1.1123 0,-0.3572 0.033,-0.7176 0.1015,-1.0765 -2.4773,0.2513 -6.9966,0.3245 -8.7157,0.3245 -0.042,-0.8625 -0.042,-1.7595 -0.042,-5.2056 0,-2.7268 0.042,-4.4851 0.075,-5.3806 3.198,0 7.4256,0.033 9.6876,0.4651 -0.072,-0.3262 -0.1045,-0.791 -0.1045,-1.1155 0,-0.3213 0.033,-0.7146 0.1045,-1.0405 -2.1138,0.1108 -4.2712,0.1809 -6.4568,0.1809 -2.1903,0 -4.3447,-0.07 -6.5349,-0.1809 0.1467,3.1231 0.2855,6.2463 0.2855,9.332 v 6.1744"
                                   style="fill:#1b458f;fill-opacity:1;fill-rule:nonzero;stroke:none"
                                   id="path3169" />
                                <path
                                   inkscape:connector-curvature="0"
                                   d="m 1056.9406,2522.5771 c 0,-2.549 0.07,-5.1325 0.2169,-7.6052 1.0014,-0.2168 2.8719,-0.3618 4.6971,-0.3618 5.2805,0 11.023,2.0796 11.023,11.5564 0,8.3289 -4.3088,10.3711 -10.1946,10.3711 -2.1154,0 -4.056,-0.1763 -5.5255,-0.3589 -0.1468,-2.2932 -0.2169,-4.8469 -0.2169,-7.4255 z m -2.9452,6.1761 c 0,3.084 -0.1405,6.2055 -0.2856,9.2944 1.7925,-0.1062 3.6302,-0.1809 5.4179,-0.1809 1.7941,0 3.6285,0.1809 5.4256,0.1809 8.3913,0 11.8436,-4.4866 11.8436,-11.8811 0,-9.5813 -7.3943,-12.8855 -13.0666,-12.8855 -1.613,0 -3.1964,0.1809 -4.811,0.1809 -1.6146,0 -3.1964,-0.07 -4.8095,-0.1809 0.1451,3.0872 0.2856,6.2105 0.2856,9.2961 v 6.1761"
                                   style="fill:#1b458f;fill-opacity:1;fill-rule:nonzero;stroke:none"
                                   id="path3171" />
                                <path
                                   inkscape:connector-curvature="0"
                                   d="m 1084.9785,2528.7874 c 0,3.0825 -0.1405,6.2072 -0.2901,9.2602 2.1558,-0.1062 4.2712,-0.1809 6.424,-0.1809 2.1543,0 4.2681,0.075 6.3913,0.1809 -0.072,-0.3589 -0.1061,-0.7192 -0.1061,-1.0764 0,-0.3604 0.034,-0.7175 0.1061,-1.0779 -3.0154,0.2136 -4.7704,0.468 -9.4427,0.468 -0.033,-1.5461 -0.1388,-2.8003 -0.1388,-4.5583 0,-1.8675 0.031,-3.8423 0.031,-4.7378 4.2385,0 6.6051,0.1794 8.7219,0.3572 -0.072,-0.3572 -0.1061,-0.7535 -0.1061,-1.1123 0,-0.3572 0.034,-0.7176 0.1061,-1.0765 -2.4756,0.2513 -7.0012,0.3245 -8.7219,0.3245 -0.031,-0.8625 -0.031,-1.7595 -0.031,-5.2056 0,-2.7268 0.031,-4.4851 0.067,-5.3806 3.1949,0 7.4318,0.033 9.6954,0.4651 -0.076,-0.3262 -0.1107,-0.791 -0.1107,-1.1155 0,-0.3213 0.034,-0.7146 0.1107,-1.0405 -2.1248,0.1108 -4.2806,0.1809 -6.4616,0.1809 -2.1949,0 -4.3446,-0.07 -6.5347,-0.1809 0.1496,3.1231 0.2901,6.2463 0.2901,9.332 v 6.1744"
                                   style="fill:#1b458f;fill-opacity:1;fill-rule:nonzero;stroke:none"
                                   id="path3173" />
                                <path
                                   inkscape:connector-curvature="0"
                                   d="m 1119.0223,2518.0547 c 0.7879,-1.6865 2.585,-3.7332 5.6675,-3.7332 3.195,0 5.1387,2.3369 5.1387,5.2058 0,6.6033 -11.3117,3.7706 -11.3117,12.2022 0,3.9844 3.0171,6.783 7.7861,6.783 2.2651,0 3.8781,-0.5367 5.3133,-1.6849 -0.4305,-0.8269 -0.6818,-1.6521 -0.9672,-3.0139 h -0.4274 c -0.507,1.3245 -1.5818,3.3711 -4.2682,3.3711 -2.7003,0 -4.6348,-1.8313 -4.6348,-4.449 0,-6.7111 11.3054,-3.9126 11.3054,-11.8466 0,-4.3758 -3.2635,-8.073 -8.7953,-8.073 -2.9764,0 -4.6644,1.0437 -5.9187,2.042 0.4338,1.1154 0.5382,1.8315 0.6802,3.1965 h 0.4321"
                                   style="fill:#1b458f;fill-opacity:1;fill-rule:nonzero;stroke:none"
                                   id="path3175" />
                                <path
                                   inkscape:connector-curvature="0"
                                   d="m 1149.0321,2533.667 -3.9109,-9.115 c 1.262,0 2.6238,-0.073 3.8766,-0.073 1.3291,0 2.6987,0.037 4.0232,0.073 z m 1.1871,4.8455 c 3.5147,-8.3274 8.8998,-21.3892 10.8061,-25.2315 -0.6474,0.1108 -1.262,0.1809 -1.9063,0.1809 -0.6459,0 -1.2589,-0.07 -1.8985,-0.1809 -0.6817,2.4805 -2.407,6.4255 -3.6956,9.6221 -1.5507,0.034 -3.1232,0.07 -4.7065,0.07 -1.4665,0 -2.9079,-0.036 -4.3789,-0.07 -1.504,-3.7002 -2.8658,-7.3584 -3.4836,-9.6221 -0.468,0.1108 -0.8923,0.1809 -1.3275,0.1809 -0.4259,0 -0.8596,-0.07 -1.3291,-0.1809 3.8438,8.3975 7.5784,16.759 11.2413,25.2315 h 0.6786"
                                   style="fill:#1b458f;fill-opacity:1;fill-rule:nonzero;stroke:none"
                                   id="path3177" />
                                <path
                                   inkscape:connector-curvature="0"
                                   d="m 1188.5422,2512.8162 c -5.4491,6.424 -11.9854,13.3144 -18.1209,19.8462 -0.039,-1.3306 -0.1093,-3.4834 -0.1093,-7.2867 0,-3.0825 0.1466,-10.6594 0.3276,-12.0947 -0.401,0.1108 -0.8283,0.1809 -1.2604,0.1809 -0.429,0 -0.8627,-0.07 -1.3307,-0.1809 0.2869,1.6909 0.755,10.8733 0.755,15.614 0,4.5225 0,8.0029 -0.1076,9.6175 h 0.574 c 5.8516,-6.3523 13.7811,-15.0025 18.1584,-19.4158 0,6.4209 0,13.4238 -0.2823,18.9509 0.3946,-0.1062 0.8221,-0.1809 1.2198,-0.1809 0.3916,0 0.7505,0.075 1.1514,0.1809 -0.2215,-2.1201 -0.5741,-9.2244 -0.5741,-12.0229 0,-3.6614 0.075,-11.5923 0.1061,-13.2085 h -0.507"
                                   style="fill:#1b458f;fill-opacity:1;fill-rule:nonzero;stroke:none"
                                   id="path3179" />
                                <path
                                   inkscape:connector-curvature="0"
                                   d="m 1204.7053,2528.7532 c 0,2.4741 -0.033,4.9514 -0.1045,7.4255 -2.4773,0 -5.6737,-0.1435 -7.683,-0.3948 0.1076,0.3604 0.1795,0.7537 0.1795,1.1514 0,0.3589 -0.072,0.7161 -0.1795,1.1123 3.0888,-0.1062 6.1714,-0.1809 9.2618,-0.1809 3.0825,0 6.1744,0.075 9.2555,0.1809 -0.1061,-0.3962 -0.1717,-0.7534 -0.1717,-1.1497 0,-0.3603 0.066,-0.7536 0.1717,-1.114 -2.0093,0.2513 -5.2057,0.3948 -7.6784,0.3948 -0.07,-2.4741 -0.1092,-4.9514 -0.1092,-7.4255 v -6.1761 c 0,-3.0856 0.1483,-6.2089 0.2871,-9.2961 -0.607,0.1108 -1.1809,0.1809 -1.755,0.1809 -0.5804,0 -1.1466,-0.07 -1.7629,-0.1809 0.1482,3.0872 0.2886,6.2105 0.2886,9.2961 v 6.1761"
                                   style="fill:#1b458f;fill-opacity:1;fill-rule:nonzero;stroke:none"
                                   id="path3181" />
                                <path
                                   inkscape:connector-curvature="0"
                                   d="m 1231.9897,2545.0442 c 0.5102,0.5039 1.0811,0.8611 1.6147,0.8611 0.4664,0 1.1871,-0.3916 1.1871,-1.145 0,-0.8658 -0.7207,-1.3306 -1.2916,-1.691 l -5.2728,-3.3728 h -1.507 z m -8.8608,-16.2568 c 0,3.0825 -0.1482,6.2072 -0.2886,9.2602 2.1529,-0.1062 4.2697,-0.1809 6.4257,-0.1809 2.1496,0 4.2728,0.075 6.3866,0.1809 -0.072,-0.3589 -0.1045,-0.7192 -0.1045,-1.0764 0,-0.3604 0.033,-0.7175 0.1045,-1.0779 -3.0139,0.2136 -4.7752,0.468 -9.4426,0.468 -0.031,-1.5461 -0.1374,-2.8003 -0.1374,-4.5583 0,-1.8675 0.031,-3.8423 0.031,-4.7378 4.24,0 6.605,0.1794 8.7235,0.3572 -0.073,-0.3572 -0.1093,-0.7535 -0.1093,-1.1123 0,-0.3572 0.036,-0.7176 0.1093,-1.0765 -2.4789,0.2513 -6.9935,0.3245 -8.7235,0.3245 -0.031,-0.8625 -0.031,-1.7595 -0.031,-5.2056 0,-2.7268 0.031,-4.4851 0.072,-5.3806 3.1887,0 7.4271,0.033 9.6892,0.4651 -0.073,-0.3262 -0.1061,-0.791 -0.1061,-1.1155 0,-0.3213 0.033,-0.7146 0.1061,-1.0405 -2.1153,0.1108 -4.2713,0.1809 -6.4569,0.1809 -2.1964,0 -4.3461,-0.07 -6.5364,-0.1809 0.1404,3.1231 0.2886,6.2463 0.2886,9.332 v 6.1744"
                                   style="fill:#1b458f;fill-opacity:1;fill-rule:nonzero;stroke:none"
                                   id="path3183" />
                                <path
                                   inkscape:connector-curvature="0"
                                   d="m 884.6745,2684.8682 c -0.209,5.7297 -0.429,11.5703 -0.6677,17.5317 h 13.2802 c -0.301,-5.9504 -0.5818,-11.8074 -0.8314,-17.5317 -0.2512,-5.7281 -0.2512,-52.5928 0,-58.3653 0.2496,-5.7722 0.5304,-11.4653 0.8314,-17.051 h -13.2802 c 0.2387,5.594 0.4587,11.272 0.6677,17.051 0.195,5.7732 0.0281,29.7854 0.0281,29.7854 -4.8859,0.079 -51.3166,0.079 -56.1984,0 0,0 -0.1446,-24.0122 0.109,-29.7854 0.2521,-5.779 0.5286,-11.457 0.831,-17.051 h -13.2775 c 0.24,5.5857 0.4593,11.2788 0.6597,17.051 0.2034,5.7725 0.2034,52.6372 0,58.3653 -0.2004,5.7243 -0.4197,11.5813 -0.6597,17.5317 h 13.2775 c -0.3024,-5.9614 -0.5789,-11.802 -0.831,-17.5317 -0.2536,-5.7388 -0.109,-22.3033 -0.109,-22.3033 4.8818,-0.111 51.3125,-0.111 56.1984,0 0,0 0.1669,16.5645 -0.0281,22.3033"
                                   style="fill:#1b458f;fill-opacity:1;fill-rule:nonzero;stroke:none"
                                   id="path3185" />
                                <path
                                   inkscape:connector-curvature="0"
                                   d="m 1096.7034,2622.855 c 6.0528,0.8594 11.2633,2.2212 13.9121,3.539 1.7877,3.5291 2.6411,7.3186 2.6411,11.3069 0,29.9456 -55.1632,19.3767 -55.1632,44.7146 0,9.8931 9.4552,16.2678 22.5857,16.2678 12.0915,0 20.3299,-7.1364 22.7838,-12.1516 l 4.8906,11.3313 c -7.0076,4.3343 -14.8871,6.3665 -25.921,6.3665 -23.2924,0 -38,-10.5681 -38,-25.6082 0,-31.8415 55.1663,-21.1362 55.1663,-46.0688 0,-3.5496 -0.9797,-6.8211 -2.8954,-9.6975"
                                   style="fill:#1b458f;fill-opacity:1;fill-rule:nonzero;stroke:none"
                                   id="path3187" />
                                <path
                                   inkscape:connector-curvature="0"
                                   d="m 1010.7349,2583.1978 h 21.6403 c -2.0622,3.3515 -9.129,18.0451 -10.6579,21.5048 l -21.4796,4.8201 c 1.4477,-2.9668 7.8141,-18.2082 10.4972,-26.3249"
                                   style="fill:#1b458f;fill-opacity:1;fill-rule:nonzero;stroke:none"
                                   id="path3189" />
                                <path
                                   inkscape:connector-curvature="0"
                                   d="m 1008.0986,2634.5955 c -2.014,4.3791 -36.6476,82.9191 -36.6476,82.9191 h -4.9436 c 0,0 -52.3676,-111.9331 -63.3922,-134.3168 h 15.1102 c 7.3133,24.1633 26.8055,64.6638 45.9576,108.1716 0,0 15.2693,-34.6575 24.3391,-55.2415 6.6721,0 13.1633,-0.5901 19.5765,-1.5324"
                                   style="fill:#1b458f;fill-opacity:1;fill-rule:nonzero;stroke:none"
                                   id="path3191" />
                                <path
                                   inkscape:connector-curvature="0"
                                   d="m 935.2528,2612.6946 c 8.7235,10.539 21.5654,23.4333 53.2693,23.4333 32.629,0 61.0054,-14.1594 96.0679,-14.1594 10.5113,0 21.6887,2.2722 26.0255,4.4255 -7.0995,-13.0947 -23.0943,-19.1381 -42.6753,-19.1381 -30.5464,0 -66.4888,13.7246 -95.4674,13.7246 -14.0244,0 -26.7945,-2.49 -37.22,-8.2859"
                                   style="fill:#e51b24;fill-opacity:1;fill-rule:nonzero;stroke:none"
                                   id="path3193" />
                                </g>
                                </g>
                              </g>
                            </g>
                          </g>
                        </g>
                      </g>
                    </g>
                  </g>
                </g>
              </g>
            </g>
          </g>
          <text
             xml:space="preserve"
             transform="matrix(0.21850613,0,0,0.21850613,618.71287,59.479795)"
             id="text11841"
             style="font-style:normal;font-weight:normal;font-size:74.6667px;line-height:1.25;font-family:sans-serif;letter-spacing:0px;white-space:pre;shape-inside:url(#rect11843);fill:#000000;fill-opacity:1;stroke:none"><tspan
               x="650.09375"
               y="103.69925"
               id="tspan23034"><tspan
                 style="font-weight:bold;font-family:Raleway;-inkscape-font-specification:'Raleway Bold';fill:#1b458f"
                 id="tspan23032">Nom projet
</tspan></tspan></text>
          <path
             style="fill:none;stroke:#000000;stroke-width:0.218506;stroke-linecap:butt;stroke-linejoin:miter;stroke-miterlimit:4;stroke-dasharray:none;stroke-opacity:1"
             d="M 755.18232,98.459529 V 78.124828 56.943365"
             id="path35640"
             sodipodi:nodetypes="ccc" />
        </g>
      </g>
    </g>
    <text
       xml:space="preserve"
       transform="translate(678.57007,375.71211)"
       id="text2669"
       style="font-style:normal;font-weight:normal;font-size:40px;line-height:1.25;font-family:sans-serif;white-space:pre;shape-inside:url(#rect2671);fill:#000000;fill-opacity:1;stroke:none" />
  </g>
</svg>
